<?xml version="1.0" encoding="UTF-8" standalone="no"?>
<!-- Created with Inkscape (http://www.inkscape.org/) -->

<svg
   xmlns:dc="http://purl.org/dc/elements/1.1/"
   xmlns:cc="http://creativecommons.org/ns#"
   xmlns:rdf="http://www.w3.org/1999/02/22-rdf-syntax-ns#"
   xmlns:svg="http://www.w3.org/2000/svg"
   xmlns="http://www.w3.org/2000/svg"
   xmlns:sodipodi="http://sodipodi.sourceforge.net/DTD/sodipodi-0.dtd"
   xmlns:inkscape="http://www.inkscape.org/namespaces/inkscape"
   height="62mm"
   width="172mm"
   viewBox="0 0 609.44871 219.68491"
   id="svg2"
   version="1.1"
   inkscape:version="0.91 r13725"
   sodipodi:docname="avani.svg">
  <defs
     id="defs8" />
  <sodipodi:namedview
     pagecolor="#ffffff"
     bordercolor="#666666"
     borderopacity="1"
     objecttolerance="10"
     gridtolerance="10"
     guidetolerance="10"
     inkscape:pageopacity="0"
     inkscape:pageshadow="2"
     inkscape:window-width="1855"
     inkscape:window-height="1056"
     id="namedview6"
     showgrid="false"
     inkscape:zoom="1.2685914"
     inkscape:cx="504.91646"
     inkscape:cy="-2.5720208"
     inkscape:window-x="65"
     inkscape:window-y="24"
     inkscape:window-maximized="1"
     inkscape:current-layer="svg2" />
  <metadata
     id="metadata4">
    <rdf:RDF>
      <cc:Work
         rdf:about="">
        <dc:format>image/svg+xml</dc:format>
        <dc:type
           rdf:resource="http://purl.org/dc/dcmitype/StillImage" />
        <dc:title></dc:title>
      </cc:Work>
    </rdf:RDF>
  </metadata>
  <g
     id="g3264">
    <g
       style="color:#000000;font-style:normal;font-variant:normal;font-weight:500;font-stretch:normal;font-size:12.5px;line-height:125%;font-family:'TeX Gyre Chorus';-inkscape-font-specification:'TeX Gyre Chorus Medium';text-indent:0;text-align:center;text-decoration:none;text-decoration-line:none;letter-spacing:0px;word-spacing:0px;text-transform:none;direction:ltr;block-progression:tb;writing-mode:lr-tb;baseline-shift:baseline;text-anchor:middle;display:inline;overflow:visible;visibility:visible;opacity:0.73900003;fill:#4b8900;fill-opacity:0.88646958;fill-rule:nonzero;stroke:none;stroke-width:1px;stroke-linecap:butt;stroke-linejoin:miter;stroke-opacity:1;marker:none;enable-background:accumulate"
       id="g3248"
       transform="translate(-13.220945,-125.43484)">
      <path
         d="m 209.68173,319.09805 q -19.62,9.9 -39.78,3.24 -21.42,-6.84 -36.9,-29.16 -8.28,-11.88 -14.22,-27.54 l -5.76,-15.3 -42.480003,0 -9.54,22.68 q -0.9,2.34 -0.9,3.78 0,1.44 0.54,3.24 0.72,1.62 2.7,3.06 2.16,1.26 4.68,1.26 l 1.44,0 0,1.8 -38.52,0 0,-1.8 1.62,0 q 4.14,0 8.1,-2.34 4.14,-2.52 6.84,-7.38 l 40.14,-91.62 q -7.02,-15.84 -14.94,-21.78 -6.66,-5.04 -12.78,-5.04 -5.94,0 -11.16,1.8 l -0.36,-1.8 q 12.96,-6.66 24.84,-6.66 14.76,0 26.46,11.52 11.520003,11.34 20.340003,32.76 l 26.1,64.44 q 14.76,36.54 30.24,50.22 6.3,5.58 12.96,7.74 6.66,2.16 11.16,2.16 4.68,0 9,-1.08 l 0.18,1.8 z m -136.080003,-76.5 36.720003,0 -12.600003,-33.3 q -0.9,-2.52 -2.52,-6.84 -1.62,-4.5 -2.16,-6.3 l -19.44,46.44 z"
         style="font-style:normal;font-variant:normal;font-weight:bold;font-stretch:normal;font-size:180px;font-family:'Cinzel Decorative';-inkscape-font-specification:'Cinzel Decorative Bold';fill:#4b8900;fill-opacity:0.88646958"
         id="path3250"
         inkscape:connector-curvature="0" />
      <path
         d="m 278.58516,161.95805 -1.62,0 q -4.14,0 -8.28,2.52 -4.14,2.52 -6.84,7.56 l -42.66,94.14 q -8.28,17.82 -8.82,23.58 l -1.62,0 -54.54,-117.54 q -2.7,-5.04 -6.84,-7.56 -4.14,-2.7 -8.46,-2.7 l -1.44,0 0,-1.8 57.24,0 0,1.8 -1.44,0 q -3.96,0 -5.94,2.52 -1.8,2.34 -1.8,4.5 0,2.16 0.72,4.32 l 30.6,74.34 31.68,-74.34 q 0.9,-2.34 0.9,-4.32 0,-2.16 -1.98,-4.5 -1.8,-2.52 -5.76,-2.52 l -1.62,0 0,-1.8 38.52,0 0,1.8 z"
         style="font-style:normal;font-variant:normal;font-weight:bold;font-stretch:normal;font-size:180px;font-family:'Cinzel Decorative';-inkscape-font-specification:'Cinzel Decorative Bold';fill:#4b8900;fill-opacity:0.88646958"
         id="path3252"
         inkscape:connector-curvature="0" />
      <path
         d="m 385.55579,284.35805 1.62,0 0,1.8 -57.42,0 0,-1.8 1.62,0 q 3.96,0 5.76,-2.34 1.98,-2.52 1.98,-4.68 0,-2.16 -0.9,-4.32 l -8.82,-22.14 -42.12,0 -9.36,22.14 q -0.9,2.34 -0.9,4.5 0,1.98 1.8,4.5 1.98,2.34 6.12,2.34 l 1.44,0 0,1.8 -38.52,0 0,-1.8 1.62,0 q 4.14,0 8.28,-2.52 4.14,-2.52 6.84,-7.56 l 41.58,-94.14 q 8.46,-17.82 9,-23.58 l 1.62,0 53.46,117.36 q 2.7,5.22 6.84,7.92 4.14,2.52 8.46,2.52 z m -95.22,-41.04 36,0 -17.46,-44.28 -18.54,44.28 z"
         style="font-style:normal;font-variant:normal;font-weight:bold;font-stretch:normal;font-size:180px;font-family:'Cinzel Decorative';-inkscape-font-specification:'Cinzel Decorative Bold';fill:#4b8900;fill-opacity:0.88646958"
         id="path3254"
         inkscape:connector-curvature="0" />
      <path
         d="m 528.79923,161.95805 q -4.5,0 -7.74,3.24 -3.24,3.06 -3.42,7.56 l 0,92.88 q 0,12.06 1.62,20.34 l 0.54,2.7 -1.62,0 -90.9,-86.58 0,71.46 q 0,4.5 3.24,7.74 3.24,3.06 7.74,3.06 l 3.42,0 0,1.8 -54.54,0 0,-1.8 3.24,0 q 4.68,0 7.92,-3.06 3.24,-3.24 3.24,-7.92 l 0,-93.42 q 0,-11.88 -1.62,-19.8 l -0.36,-2.7 1.62,0 90.9,86.58 0,-71.1 q -0.18,-4.68 -3.42,-7.74 -3.24,-3.24 -7.74,-3.24 l -3.24,0 0,-1.8 54.54,0 0,1.8 -3.42,0 z"
         style="font-style:normal;font-variant:normal;font-weight:bold;font-stretch:normal;font-size:180px;font-family:'Cinzel Decorative';-inkscape-font-specification:'Cinzel Decorative Bold';fill:#4b8900;fill-opacity:0.88646958"
         id="path3256"
         inkscape:connector-curvature="0" />
      <path
         d="m 544.56891,284.35805 q 4.68,0 7.92,-3.24 3.42,-3.42 3.6,-8.1 l 0,-99.9 q -0.18,-4.68 -3.6,-7.92 -3.24,-3.24 -7.92,-3.24 l -2.34,0 0,-1.8 54.72,0 -0.18,1.8 -2.16,0 q -4.68,0 -8.1,3.24 -3.42,3.24 -3.42,7.92 l 0,99.9 q 0,4.68 3.42,8.1 3.42,3.24 8.1,3.24 l 2.16,0 0.18,1.8 -54.72,0 0,-1.8 2.34,0 z"
         style="font-style:normal;font-variant:normal;font-weight:bold;font-stretch:normal;font-size:180px;font-family:'Cinzel Decorative';-inkscape-font-specification:'Cinzel Decorative Bold';fill:#4b8900;fill-opacity:0.88646958"
         id="path3258"
         inkscape:connector-curvature="0" />
    </g>
    <g
       transform="translate(-9.2209454,-127.43484)"
       id="text3140"
       style="color:#000000;font-style:normal;font-variant:normal;font-weight:500;font-stretch:normal;font-size:12.5px;line-height:125%;font-family:'TeX Gyre Chorus';-inkscape-font-specification:'TeX Gyre Chorus Medium';text-indent:0;text-align:center;text-decoration:none;text-decoration-line:none;letter-spacing:0px;word-spacing:0px;text-transform:none;direction:ltr;block-progression:tb;writing-mode:lr-tb;baseline-shift:baseline;text-anchor:middle;display:inline;overflow:visible;visibility:visible;fill:#407400;fill-opacity:1;fill-rule:nonzero;stroke:none;stroke-width:1px;stroke-linecap:butt;stroke-linejoin:miter;stroke-opacity:1;marker:none;enable-background:accumulate">
      <path
         inkscape:connector-curvature="0"
         id="path3200"
         style="font-style:normal;font-variant:normal;font-weight:bold;font-stretch:normal;font-size:180px;font-family:'Cinzel Decorative';-inkscape-font-specification:'Cinzel Decorative Bold';fill:#407400;fill-opacity:1"
         d="m 209.68173,319.09805 q -19.62,9.9 -39.78,3.24 -21.42,-6.84 -36.9,-29.16 -8.28,-11.88 -14.22,-27.54 l -5.76,-15.3 -42.480003,0 -9.54,22.68 q -0.9,2.34 -0.9,3.78 0,1.44 0.54,3.24 0.72,1.62 2.7,3.06 2.16,1.26 4.68,1.26 l 1.44,0 0,1.8 -38.52,0 0,-1.8 1.62,0 q 4.14,0 8.1,-2.34 4.14,-2.52 6.84,-7.38 l 40.14,-91.62 q -7.02,-15.84 -14.94,-21.78 -6.66,-5.04 -12.78,-5.04 -5.94,0 -11.16,1.8 l -0.36,-1.8 q 12.96,-6.66 24.84,-6.66 14.76,0 26.46,11.52 11.520003,11.34 20.340003,32.76 l 26.1,64.44 q 14.76,36.54 30.24,50.22 6.3,5.58 12.96,7.74 6.66,2.16 11.16,2.16 4.68,0 9,-1.08 l 0.18,1.8 z m -136.080003,-76.5 36.720003,0 -12.600003,-33.3 q -0.9,-2.52 -2.52,-6.84 -1.62,-4.5 -2.16,-6.3 l -19.44,46.44 z" />
      <path
         inkscape:connector-curvature="0"
         id="path3202"
         style="font-style:normal;font-variant:normal;font-weight:bold;font-stretch:normal;font-size:180px;font-family:'Cinzel Decorative';-inkscape-font-specification:'Cinzel Decorative Bold';fill:#407400;fill-opacity:1"
         d="m 278.58516,161.95805 -1.62,0 q -4.14,0 -8.28,2.52 -4.14,2.52 -6.84,7.56 l -42.66,94.14 q -8.28,17.82 -8.82,23.58 l -1.62,0 -54.54,-117.54 q -2.7,-5.04 -6.84,-7.56 -4.14,-2.7 -8.46,-2.7 l -1.44,0 0,-1.8 57.24,0 0,1.8 -1.44,0 q -3.96,0 -5.94,2.52 -1.8,2.34 -1.8,4.5 0,2.16 0.72,4.32 l 30.6,74.34 31.68,-74.34 q 0.9,-2.34 0.9,-4.32 0,-2.16 -1.98,-4.5 -1.8,-2.52 -5.76,-2.52 l -1.62,0 0,-1.8 38.52,0 0,1.8 z" />
      <path
         inkscape:connector-curvature="0"
         id="path3204"
         style="font-style:normal;font-variant:normal;font-weight:bold;font-stretch:normal;font-size:180px;font-family:'Cinzel Decorative';-inkscape-font-specification:'Cinzel Decorative Bold';fill:#407400;fill-opacity:1"
         d="m 385.55579,284.35805 1.62,0 0,1.8 -57.42,0 0,-1.8 1.62,0 q 3.96,0 5.76,-2.34 1.98,-2.52 1.98,-4.68 0,-2.16 -0.9,-4.32 l -8.82,-22.14 -42.12,0 -9.36,22.14 q -0.9,2.34 -0.9,4.5 0,1.98 1.8,4.5 1.98,2.34 6.12,2.34 l 1.44,0 0,1.8 -38.52,0 0,-1.8 1.62,0 q 4.14,0 8.28,-2.52 4.14,-2.52 6.84,-7.56 l 41.58,-94.14 q 8.46,-17.82 9,-23.58 l 1.62,0 53.46,117.36 q 2.7,5.22 6.84,7.92 4.14,2.52 8.46,2.52 z m -95.22,-41.04 36,0 -17.46,-44.28 -18.54,44.28 z" />
      <path
         inkscape:connector-curvature="0"
         id="path3206"
         style="font-style:normal;font-variant:normal;font-weight:bold;font-stretch:normal;font-size:180px;font-family:'Cinzel Decorative';-inkscape-font-specification:'Cinzel Decorative Bold';fill:#407400;fill-opacity:1"
         d="m 528.79923,161.95805 q -4.5,0 -7.74,3.24 -3.24,3.06 -3.42,7.56 l 0,92.88 q 0,12.06 1.62,20.34 l 0.54,2.7 -1.62,0 -90.9,-86.58 0,71.46 q 0,4.5 3.24,7.74 3.24,3.06 7.74,3.06 l 3.42,0 0,1.8 -54.54,0 0,-1.8 3.24,0 q 4.68,0 7.92,-3.06 3.24,-3.24 3.24,-7.92 l 0,-93.42 q 0,-11.88 -1.62,-19.8 l -0.36,-2.7 1.62,0 90.9,86.58 0,-71.1 q -0.18,-4.68 -3.42,-7.74 -3.24,-3.24 -7.74,-3.24 l -3.24,0 0,-1.8 54.54,0 0,1.8 -3.42,0 z" />
      <path
         inkscape:connector-curvature="0"
         id="path3208"
         style="font-style:normal;font-variant:normal;font-weight:bold;font-stretch:normal;font-size:180px;font-family:'Cinzel Decorative';-inkscape-font-specification:'Cinzel Decorative Bold';fill:#407400;fill-opacity:1"
         d="m 544.56891,284.35805 q 4.68,0 7.92,-3.24 3.42,-3.42 3.6,-8.1 l 0,-99.9 q -0.18,-4.68 -3.6,-7.92 -3.24,-3.24 -7.92,-3.24 l -2.34,0 0,-1.8 54.72,0 -0.18,1.8 -2.16,0 q -4.68,0 -8.1,3.24 -3.42,3.24 -3.42,7.92 l 0,99.9 q 0,4.68 3.42,8.1 3.42,3.24 8.1,3.24 l 2.16,0 0.18,1.8 -54.72,0 0,-1.8 2.34,0 z" />
    </g>
  </g>
</svg>
