<?xml version="1.0" encoding="UTF-8" standalone="no"?>
<!-- Created with Inkscape (http://www.inkscape.org/) -->

<svg
   xmlns:dc="http://purl.org/dc/elements/1.1/"
   xmlns:cc="http://creativecommons.org/ns#"
   xmlns:rdf="http://www.w3.org/1999/02/22-rdf-syntax-ns#"
   xmlns:svg="http://www.w3.org/2000/svg"
   xmlns="http://www.w3.org/2000/svg"
   xmlns:sodipodi="http://sodipodi.sourceforge.net/DTD/sodipodi-0.dtd"
   xmlns:inkscape="http://www.inkscape.org/namespaces/inkscape"
   height="62mm"
   width="220mm"
   viewBox="0 0 779.5277 219.68504"
   id="svg3278"
   version="1.1"
   inkscape:version="0.91 r13725"
   sodipodi:docname="ember.svg">
  <defs
     id="defs3284" />
  <sodipodi:namedview
     pagecolor="#ffffff"
     bordercolor="#666666"
     borderopacity="1"
     objecttolerance="10"
     gridtolerance="10"
     guidetolerance="10"
     inkscape:pageopacity="0"
     inkscape:pageshadow="2"
     inkscape:window-width="1855"
     inkscape:window-height="1056"
     id="namedview3282"
     showgrid="false"
     inkscape:zoom="1.28"
     inkscape:cx="482.80567"
     inkscape:cy="144.99064"
     inkscape:window-x="65"
     inkscape:window-y="24"
     inkscape:window-maximized="1"
     inkscape:current-layer="svg3278" />
  <metadata
     id="metadata3280">
    <rdf:RDF>
      <cc:Work
         rdf:about="">
        <dc:format>image/svg+xml</dc:format>
        <dc:type
           rdf:resource="http://purl.org/dc/dcmitype/StillImage" />
        <dc:title></dc:title>
      </cc:Work>
    </rdf:RDF>
  </metadata>
  <g
     id="g3364">
    <g
       transform="translate(6.0000012,2.0000002)"
       id="text3338"
       style="color:#000000;font-style:normal;font-variant:normal;font-weight:bold;font-stretch:normal;font-size:180px;line-height:125%;font-family:'Cinzel Decorative';-inkscape-font-specification:'Cinzel Decorative Bold';text-indent:0;text-align:center;text-decoration:none;text-decoration-line:none;letter-spacing:0px;word-spacing:0px;text-transform:none;direction:ltr;block-progression:tb;writing-mode:lr-tb;baseline-shift:baseline;text-anchor:middle;display:inline;overflow:visible;visibility:visible;fill:#fc3d00;fill-opacity:1;fill-rule:nonzero;stroke:none;stroke-width:1px;stroke-linecap:butt;stroke-linejoin:miter;stroke-opacity:1;marker:none;enable-background:accumulate">
      <path
         inkscape:connector-curvature="0"
         id="path3343"
         style="font-style:normal;font-variant:normal;font-weight:bold;font-stretch:normal;font-size:180px;font-family:'Cinzel Decorative';-inkscape-font-specification:'Cinzel Decorative Bold';fill:#fc3d00;fill-opacity:1"
         d="m 22.936987,162.33252 q 4.68,0 7.92,-3.24 3.42,-3.42 3.6,-8.1 l 0,-100.259997 q -0.54,-6.3 -5.94,-9.36 -2.7,-1.44 -5.58,-1.44 l -2.34,0 0,-1.8 50.58,0 q 7.92,0 13.86,-1.26 5.94,-1.26 7.74,-1.98 l 0,31.5 -1.98,0 0,-2.16 q 0.18,-8.1 -4.68,-12.96 -4.68,-5.04 -12.78,-5.4 l -11.88,0 0,52.38 28.62,0 q 6.66,-0.18 10.980003,-4.5 4.32,-4.5 4.32,-10.98 l 0,-1.62 1.62,0 0,41.579997 -1.62,0 0,-1.44 q 0,-6.66 -4.32,-10.98 -4.320003,-4.32 -10.800003,-4.5 l -28.8,0 0,50.58 35.1,0 q 13.140003,0 21.960003,-7.56 9,-7.56 13.32,-21.42 l 1.8,0 -8.46,36.72 -104.580003,0 0,-1.8 2.34,0 z" />
      <path
         inkscape:connector-curvature="0"
         id="path3345"
         style="font-style:normal;font-variant:normal;font-weight:bold;font-stretch:normal;font-size:180px;font-family:'Cinzel Decorative';-inkscape-font-specification:'Cinzel Decorative Bold';fill:#fc3d00;fill-opacity:1"
         d="m 116.34292,26.252523 q 10.26,-4.32 17.82,-4.32 7.56,0 13.32,1.44 5.76,1.44 11.7,4.86 6.12,3.24 11.34,8.1 10.08,9.54 17.1,21.6 l 36,67.499997 52.2,-89.819997 1.62,0 18.72,105.839997 q 4.32,24.48 14.94,38.88 10.62,14.58 29.16,14.58 1.26,0 2.34,0 l 0,1.8 q -9.9,2.7 -19.44,2.7 -19.44,0 -35.46,-15.3 -15.48,-14.58 -21.06,-42.66 l -8.82,-52.379997 -33.84,58.679997 q -6.84,11.34 -7.02,19.98 l -1.62,0 -44.82,-84.959997 -8.82,71.999997 q -0.54,4.14 3.6,6.66 1.62,1.08 3.42,1.08 l 2.88,0 0,1.62 -37.62,0 0,-1.8 2.88,0 q 4.68,0 8.28,-2.7 3.78,-2.88 4.68,-7.74 l 12.24,-85.859997 q -8.1,-14.4 -18.54,-25.56 -11.7,-12.6 -24.48,-12.6 -1.26,0 -2.34,0.18 l -0.36,-1.8 z" />
      <path
         inkscape:connector-curvature="0"
         id="path3347"
         style="font-style:normal;font-variant:normal;font-weight:bold;font-stretch:normal;font-size:180px;font-family:'Cinzel Decorative';-inkscape-font-specification:'Cinzel Decorative Bold';fill:#fc3d00;fill-opacity:1"
         d="m 409.87792,69.092523 q 0,8.46 -4.32,15.12 -4.14,6.66 -10.8,9.18 20.88,1.08 30.42,16.379997 4.86,7.74 4.86,19.08 0,11.34 -8.82,20.7 -8.64,9.36 -22.14,13.32 -13.5,3.96 -28.44,3.96 -37.26,0 -53.28,-19.8 -10.26,-12.6 -10.26,-34.02 0,-3.6 0.36,-7.2 l 1.8,-0.18 q 1.26,30.96 22.14,44.28 l 0,-98.819997 q -0.18,-6.66 -5.94,-9.72 -2.52,-1.44 -5.58,-1.44 l -2.34,0 0,-1.8 45.72,0 q 19.98,0 33.3,8.1 13.32,7.92 13.32,22.86 z m -46.44,89.279997 q 16.74,0 26.1,-8.82 9.54,-8.82 9.54,-23.22 0,-9 -3.42,-15.12 -3.24,-6.3 -8.64,-9.36 -9.9,-5.939997 -22.5,-5.939997 l 0,-1.62 q 5.76,0 9.72,-4.14 6.84,-7.2 6.84,-19.62 0,-12.42 -5.58,-18.36 -5.4,-5.94 -17.1,-6.3 l 0,112.319997 q 2.52,0.18 5.04,0.18 z" />
      <path
         inkscape:connector-curvature="0"
         id="path3349"
         style="font-style:normal;font-variant:normal;font-weight:bold;font-stretch:normal;font-size:180px;font-family:'Cinzel Decorative';-inkscape-font-specification:'Cinzel Decorative Bold';fill:#fc3d00;fill-opacity:1"
         d="m 441.64792,162.33252 q 4.68,0 7.92,-3.24 3.42,-3.42 3.6,-8.1 l 0,-100.259997 q -0.54,-6.3 -5.94,-9.36 -2.7,-1.44 -5.58,-1.44 l -2.34,0 0,-1.8 50.58,0 q 7.92,0 13.86,-1.26 5.94,-1.26 7.74,-1.98 l 0,31.5 -1.98,0 0,-2.16 q 0.18,-8.1 -4.68,-12.96 -4.68,-5.04 -12.78,-5.4 l -11.88,0 0,52.38 28.62,0 q 6.66,-0.18 10.98,-4.5 4.32,-4.5 4.32,-10.98 l 0,-1.62 1.62,0 0,41.579997 -1.62,0 0,-1.44 q 0,-6.66 -4.32,-10.98 -4.32,-4.32 -10.8,-4.5 l -28.8,0 0,50.58 35.1,0 q 13.14,0 21.96,-7.56 9,-7.56 13.32,-21.42 l 1.8,0 -8.46,36.72 -104.58,0 0,-1.8 2.34,0 z" />
      <path
         inkscape:connector-curvature="0"
         id="path3351"
         style="font-style:normal;font-variant:normal;font-weight:bold;font-stretch:normal;font-size:180px;font-family:'Cinzel Decorative';-inkscape-font-specification:'Cinzel Decorative Bold';fill:#fc3d00;fill-opacity:1"
         d="m 746.93074,194.73252 q -14.04,7.02 -29.88,7.02 -14.04,0 -25.56,-4.32 -24.84,-9.18 -42.3,-35.82 -4.5,-6.48 -16.74,-24.84 -12.24,-18.36 -15.84,-23.4 -6.3,-9.9 -10.08,-10.8 l 0,-1.8 q 0.18,0 0.36,0 0.36,0 0.72,0 0.36,0 0.72,0 0.36,0 0.9,0 0.54,0 0.9,0 9.18,0 16.92,-4.139997 11.7,-6.48 11.7,-23.94 0,-12.78 -7.2,-19.62 -7.2,-7.02 -17.28,-7.02 l -13.68,0 0,104.939997 q 0,4.68 3.42,8.1 3.42,3.24 8.1,3.24 l 2.34,0 0,1.8 -54.72,0 0,-1.8 2.34,0 q 4.5,0 7.92,-3.24 3.42,-3.24 3.6,-7.92 l 0,-99.899997 q -0.18,-4.68 -3.6,-7.92 -3.24,-3.42 -7.92,-3.42 l -2.34,0 0,-1.8 61.74,0 q 23.22,0 36,10.62 10.08,8.28 10.08,23.4 0,15.12 -9.9,24.66 -9.72,9.359997 -22.32,9.359997 -1.08,0 -2.34,-0.18 7.38,3.96 12.24,8.82 5.04,4.86 8.64,9.18 3.78,4.32 6.3,7.74 2.7,3.24 7.02,8.82 4.32,5.4 9,11.34 4.68,5.94 10.26,12.24 5.76,6.12 12.6,11.7 7.02,5.58 14.22,9.18 15.3,7.74 33.66,7.92 l 0,1.8 z" />
    </g>
    <g
       id="text3286"
       style="color:#000000;font-style:normal;font-variant:normal;font-weight:bold;font-stretch:normal;font-size:180px;line-height:125%;font-family:'Cinzel Decorative';-inkscape-font-specification:'Cinzel Decorative Bold';text-indent:0;text-align:center;text-decoration:none;text-decoration-line:none;letter-spacing:0px;word-spacing:0px;text-transform:none;direction:ltr;block-progression:tb;writing-mode:lr-tb;baseline-shift:baseline;text-anchor:middle;display:inline;overflow:visible;visibility:visible;fill:#ffdd38;fill-opacity:1;fill-rule:nonzero;stroke:none;stroke-width:1px;stroke-linecap:butt;stroke-linejoin:miter;stroke-opacity:1;marker:none;enable-background:accumulate">
      <path
         id="path3354"
         style="font-style:normal;font-variant:normal;font-weight:bold;font-stretch:normal;font-size:180px;font-family:'Cinzel Decorative';-inkscape-font-specification:'Cinzel Decorative Bold';fill:#ffdd38;fill-opacity:1"
         d="m 28.936987,162.33252 q 4.68,0 7.92,-3.24 3.42,-3.42 3.6,-8.1 l 0,-100.259997 q -0.54,-6.3 -5.94,-9.36 -2.7,-1.44 -5.58,-1.44 l -2.34,0 0,-1.8 50.58,0 q 7.92,0 13.86,-1.26 5.94,-1.26 7.74,-1.98 l 0,31.5 -1.98,0 0,-2.16 q 0.18,-8.1 -4.68,-12.96 -4.68,-5.04 -12.78,-5.4 l -11.88,0 0,52.38 28.62,0 q 6.660003,-0.18 10.980003,-4.5 4.32,-4.5 4.32,-10.98 l 0,-1.62 1.62,0 0,41.579997 -1.62,0 0,-1.44 q 0,-6.66 -4.32,-10.98 -4.32,-4.32 -10.800003,-4.5 l -28.8,0 0,50.58 35.100003,0 q 13.14,0 21.96,-7.56 9,-7.56 13.32,-21.42 l 1.8,0 -8.46,36.72 -104.580003,0 0,-1.8 2.34,0 z" />
      <path
         id="path3356"
         style="font-style:normal;font-variant:normal;font-weight:bold;font-stretch:normal;font-size:180px;font-family:'Cinzel Decorative';-inkscape-font-specification:'Cinzel Decorative Bold';fill:#ffdd38;fill-opacity:1"
         d="m 122.34292,26.252523 q 10.26,-4.32 17.82,-4.32 7.56,0 13.32,1.44 5.76,1.44 11.7,4.86 6.12,3.24 11.34,8.1 10.08,9.54 17.1,21.6 l 36,67.499997 52.2,-89.819997 1.62,0 18.72,105.839997 q 4.32,24.48 14.94,38.88 10.62,14.58 29.16,14.58 1.26,0 2.34,0 l 0,1.8 q -9.9,2.7 -19.44,2.7 -19.44,0 -35.46,-15.3 -15.48,-14.58 -21.06,-42.66 l -8.82,-52.379997 -33.84,58.679997 q -6.84,11.34 -7.02,19.98 l -1.62,0 -44.82,-84.959997 -8.82,71.999997 q -0.54,4.14 3.6,6.66 1.62,1.08 3.42,1.08 l 2.88,0 0,1.62 -37.62,0 0,-1.8 2.88,0 q 4.68,0 8.28,-2.7 3.78,-2.88 4.68,-7.74 l 12.24,-85.859997 q -8.1,-14.4 -18.54,-25.56 -11.7,-12.6 -24.48,-12.6 -1.26,0 -2.34,0.18 l -0.36,-1.8 z" />
      <path
         id="path3358"
         style="font-style:normal;font-variant:normal;font-weight:bold;font-stretch:normal;font-size:180px;font-family:'Cinzel Decorative';-inkscape-font-specification:'Cinzel Decorative Bold';fill:#ffdd38;fill-opacity:1"
         d="m 415.87792,69.092523 q 0,8.46 -4.32,15.12 -4.14,6.66 -10.8,9.18 20.88,1.08 30.42,16.379997 4.86,7.74 4.86,19.08 0,11.34 -8.82,20.7 -8.64,9.36 -22.14,13.32 -13.5,3.96 -28.44,3.96 -37.26,0 -53.28,-19.8 -10.26,-12.6 -10.26,-34.02 0,-3.6 0.36,-7.2 l 1.8,-0.18 q 1.26,30.96 22.14,44.28 l 0,-98.819997 q -0.18,-6.66 -5.94,-9.72 -2.52,-1.44 -5.58,-1.44 l -2.34,0 0,-1.8 45.72,0 q 19.98,0 33.3,8.1 13.32,7.92 13.32,22.86 z m -46.44,89.279997 q 16.74,0 26.1,-8.82 9.54,-8.82 9.54,-23.22 0,-9 -3.42,-15.12 -3.24,-6.3 -8.64,-9.36 -9.9,-5.939997 -22.5,-5.939997 l 0,-1.62 q 5.76,0 9.72,-4.14 6.84,-7.2 6.84,-19.62 0,-12.42 -5.58,-18.36 -5.4,-5.94 -17.1,-6.3 l 0,112.319997 q 2.52,0.18 5.04,0.18 z" />
      <path
         id="path3360"
         style="font-style:normal;font-variant:normal;font-weight:bold;font-stretch:normal;font-size:180px;font-family:'Cinzel Decorative';-inkscape-font-specification:'Cinzel Decorative Bold';fill:#ffdd38;fill-opacity:1"
         d="m 447.64792,162.33252 q 4.68,0 7.92,-3.24 3.42,-3.42 3.6,-8.1 l 0,-100.259997 q -0.54,-6.3 -5.94,-9.36 -2.7,-1.44 -5.58,-1.44 l -2.34,0 0,-1.8 50.58,0 q 7.92,0 13.86,-1.26 5.94,-1.26 7.74,-1.98 l 0,31.5 -1.98,0 0,-2.16 q 0.18,-8.1 -4.68,-12.96 -4.68,-5.04 -12.78,-5.4 l -11.88,0 0,52.38 28.62,0 q 6.66,-0.18 10.98,-4.5 4.32,-4.5 4.32,-10.98 l 0,-1.62 1.62,0 0,41.579997 -1.62,0 0,-1.44 q 0,-6.66 -4.32,-10.98 -4.32,-4.32 -10.8,-4.5 l -28.8,0 0,50.58 35.1,0 q 13.14,0 21.96,-7.56 9,-7.56 13.32,-21.42 l 1.8,0 -8.46,36.72 -104.58,0 0,-1.8 2.34,0 z" />
      <path
         id="path3362"
         style="font-style:normal;font-variant:normal;font-weight:bold;font-stretch:normal;font-size:180px;font-family:'Cinzel Decorative';-inkscape-font-specification:'Cinzel Decorative Bold';fill:#ffdd38;fill-opacity:1"
         d="m 752.93074,194.73252 q -14.04,7.02 -29.88,7.02 -14.04,0 -25.56,-4.32 -24.84,-9.18 -42.3,-35.82 -4.5,-6.48 -16.74,-24.84 -12.24,-18.36 -15.84,-23.4 -6.3,-9.9 -10.08,-10.8 l 0,-1.8 q 0.18,0 0.36,0 0.36,0 0.72,0 0.36,0 0.72,0 0.36,0 0.9,0 0.54,0 0.9,0 9.18,0 16.92,-4.139997 11.7,-6.48 11.7,-23.94 0,-12.78 -7.2,-19.62 -7.2,-7.02 -17.28,-7.02 l -13.68,0 0,104.939997 q 0,4.68 3.42,8.1 3.42,3.24 8.1,3.24 l 2.34,0 0,1.8 -54.72,0 0,-1.8 2.34,0 q 4.5,0 7.92,-3.24 3.42,-3.24 3.6,-7.92 l 0,-99.899997 q -0.18,-4.68 -3.6,-7.92 -3.24,-3.42 -7.92,-3.42 l -2.34,0 0,-1.8 61.74,0 q 23.22,0 36,10.62 10.08,8.28 10.08,23.4 0,15.12 -9.9,24.66 -9.72,9.359997 -22.32,9.359997 -1.08,0 -2.34,-0.18 7.38,3.96 12.24,8.82 5.04,4.86 8.64,9.18 3.78,4.32 6.3,7.74 2.7,3.24 7.02,8.82 4.32,5.4 9,11.34 4.68,5.94 10.26,12.24 5.76,6.12 12.6,11.7 7.02,5.58 14.22,9.18 15.3,7.74 33.66,7.92 l 0,1.8 z" />
    </g>
  </g>
</svg>
