<?xml version="1.0" encoding="UTF-8" standalone="no"?>
<!-- Created with Inkscape (http://www.inkscape.org/) -->

<svg
   xmlns:dc="http://purl.org/dc/elements/1.1/"
   xmlns:cc="http://creativecommons.org/ns#"
   xmlns:rdf="http://www.w3.org/1999/02/22-rdf-syntax-ns#"
   xmlns:svg="http://www.w3.org/2000/svg"
   xmlns="http://www.w3.org/2000/svg"
   xmlns:sodipodi="http://sodipodi.sourceforge.net/DTD/sodipodi-0.dtd"
   xmlns:inkscape="http://www.inkscape.org/namespaces/inkscape"
   height="62mm"
   width="250mm"
   viewBox="0 0 885.82689 219.68501"
   id="svg3397"
   version="1.1"
   inkscape:version="0.91 r13725"
   sodipodi:docname="zephyr.svg">
  <defs
     id="defs3403" />
  <sodipodi:namedview
     pagecolor="#ffffff"
     bordercolor="#666666"
     borderopacity="1"
     objecttolerance="10"
     gridtolerance="10"
     guidetolerance="10"
     inkscape:pageopacity="0"
     inkscape:pageshadow="2"
     inkscape:window-width="1855"
     inkscape:window-height="1056"
     id="namedview3401"
     showgrid="false"
     inkscape:zoom="1.2685914"
     inkscape:cx="488.98439"
     inkscape:cy="131.88535"
     inkscape:window-x="65"
     inkscape:window-y="24"
     inkscape:window-maximized="1"
     inkscape:current-layer="g3489"
     showguides="false" />
  <metadata
     id="metadata3399">
    <rdf:RDF>
      <cc:Work
         rdf:about="">
        <dc:format>image/svg+xml</dc:format>
        <dc:type
           rdf:resource="http://purl.org/dc/dcmitype/StillImage" />
        <dc:title></dc:title>
      </cc:Work>
    </rdf:RDF>
  </metadata>
  <g
     id="g3489"
     style="color:#000000;font-style:normal;font-variant:normal;font-weight:500;font-stretch:normal;font-size:12.5px;line-height:125%;font-family:'TeX Gyre Chorus';-inkscape-font-specification:'TeX Gyre Chorus Medium';text-indent:0;text-align:center;text-decoration:none;text-decoration-line:none;letter-spacing:0px;word-spacing:0px;text-transform:none;direction:ltr;block-progression:tb;writing-mode:lr-tb;baseline-shift:baseline;text-anchor:middle;display:inline;overflow:visible;visibility:visible;fill:#87cefa;fill-opacity:1;fill-rule:nonzero;stroke:none;stroke-width:1px;stroke-linecap:butt;stroke-linejoin:miter;stroke-opacity:1;marker:none;enable-background:accumulate"
     transform="translate(-2.0000002,2.0000002)">
    <g
       id="g3550"
       transform="translate(0.99999773,-1.0000078)">
      <g
         id="text3405"
         style="color:#000000;font-style:normal;font-variant:normal;font-weight:500;font-stretch:normal;font-size:12.5px;line-height:125%;font-family:'TeX Gyre Chorus';-inkscape-font-specification:'TeX Gyre Chorus Medium';text-indent:0;text-align:center;text-decoration:none;text-decoration-line:none;letter-spacing:0px;word-spacing:0px;text-transform:none;direction:ltr;block-progression:tb;writing-mode:lr-tb;baseline-shift:baseline;text-anchor:middle;display:inline;overflow:visible;visibility:visible;fill:#001cf2;fill-opacity:1;fill-rule:nonzero;stroke:none;stroke-width:1px;stroke-linecap:butt;stroke-linejoin:miter;stroke-opacity:1;marker:none;enable-background:accumulate"
         transform="translate(2.0000002,-2.0000002)">
        <path
           id="path3410"
           style="font-style:normal;font-variant:normal;font-weight:bold;font-stretch:normal;font-size:180px;font-family:'Cinzel Decorative';-inkscape-font-specification:'Cinzel Decorative Bold';fill:#001cf2;fill-opacity:1"
           d="m 216.645,185.98251 q -7.02,8.46 -15.66,13.5 -8.46,5.04 -16.2,6.48 -7.74,1.44 -12.6,1.44 -4.86,0 -11.16,-0.36 -6.12,-0.36 -15.84,-3.06 -9.72,-2.52 -20.16,-6.12 -10.44,-3.6 -19.98,-7.92 -9.539998,-4.32 -19.439998,-8.64 -9.9,-4.14 -18.36,-7.56 -18.72,-7.74 -31.32,-7.92 l -1.26,0 0,-1.62 66.059998,-117 -43.559998,0 q -8.28,0.18 -13.32,5.22 -4.86,4.86 -4.86,13.14 l 0,2.16 -1.8,0 0,-31.32 q 2.7,1.08 9.36,2.16 6.84,1.08 9.54,1.08 2.88,0 2.88,0 l 57.419998,0 q 7.56,0 12.78,-0.9 5.22,-0.9 6.12,-1.44 l 0,1.62 -70.199998,125.46 5.4,1.26 q 6.3,1.8 19.26,5.22 13.139998,3.42 18.719998,4.86 5.76,1.62 16.56,4.32 10.98,2.7 16.2,3.78 5.4,1.08 14.4,2.88 9.18,1.8 14.22,2.16 14.04,0.9 17.82,0.9 3.96,0 7.74,-0.36 11.88,-1.44 19.98,-4.68 l 1.26,1.26 z"
           inkscape:connector-curvature="0" />
        <path
           sodipodi:nodetypes="sscccsccssccccccccccsccccsscccsccccccs"
           inkscape:connector-curvature="0"
           id="path3412"
           style="font-style:normal;font-variant:normal;font-weight:bold;font-stretch:normal;font-size:180px;font-family:'Cinzel Decorative';-inkscape-font-specification:'Cinzel Decorative Bold';fill:#001cf2;fill-opacity:1"
           d="m 153.18375,164.02251 c 3.12,0 5.76,-1.08 7.92,-3.24 2.28,-2.28 3.48,-4.98 3.6,-8.1 l 0,-100.26 c -0.36,-4.2 -2.34,-7.32 -5.94,-9.36 -1.8,-0.96 -3.66,-1.44 -5.58,-1.44 l -2.34,0 0,-1.8 50.58,0 c 5.28,0 9.9,-0.42 13.86,-1.26 3.96,-0.84 8.76958,-1.5 9.96958,-1.98 l 0.13935,33.590232 -5.04567,-0.696744 0.69674,-3.553488 c 0.12,-5.4 -1.44,-9.72 -4.68,-12.96 -3.12,-3.36 -7.38,-5.16 -12.78,-5.4 l -11.88,0 0,52.38 28.62,0 c 4.44,-0.12 8.1,-1.62 10.98,-4.5 2.88,-3 4.32,-6.66 4.32,-10.98 l 0,-1.62 1.62,0 0,41.58 -1.62,0 0,-1.44 c 0,-4.44 -1.44,-8.1 -4.32,-10.98 -2.88,-2.88 -6.48,-4.38 -10.8,-4.5 l -28.8,0 0,50.58 35.1,0 c 8.76,0 16.08,-2.52 21.96,-7.56 6,-5.04 10.44,-12.18 13.32,-21.42 l 1.8,0 -8.46,36.72 -104.58,0 0,-1.8 z" />
        <path
           id="path3414"
           style="font-style:normal;font-variant:normal;font-weight:bold;font-stretch:normal;font-size:180px;font-family:'Cinzel Decorative';-inkscape-font-specification:'Cinzel Decorative Bold';fill:#001cf2;fill-opacity:1"
           d="m 372.78656,91.48251 q -6.12,14.04 -22.68,19.44 -4.86,1.62 -9,1.62 -12.78,0 -22.86,-6.66 l 0,-1.8 q 13.5,0.36 21.78,-8.82 7.38,-7.92 7.38,-20.7 0,-19.62 -13.68,-25.38 -4.32,-1.8 -9.54,-1.8 l -12.06,0 0,105.3 q 0,4.68 3.42,8.1 3.42,3.24 8.1,3.24 l 2.34,0 0,1.8 -54.72,0 0,-1.8 2.34,0 q 4.68,0 7.92,-3.24 3.42,-3.42 3.6,-8.1 l 0,-100.62 q -0.72,-6.12 -6.12,-9 -2.52,-1.44 -5.4,-1.44 l -2.34,0 0,-1.8 60.12,0 q 32.58,0 41.76,20.7 2.88,6.84 2.88,15.3 0,8.28 -3.24,15.66 z"
           inkscape:connector-curvature="0" />
        <path
           id="path3416"
           style="font-style:normal;font-variant:normal;font-weight:bold;font-stretch:normal;font-size:180px;font-family:'Cinzel Decorative';-inkscape-font-specification:'Cinzel Decorative Bold';fill:#001cf2;fill-opacity:1"
           d="m 474.72844,164.02251 q 4.68,0 8.1,-3.24 3.42,-3.24 3.6,-7.92 l 0,-45.9 -56.7,0 0,46.26 q 0,21.6 -10.98,34.38 -8.64,10.08 -24.84,10.08 -5.22,0 -11.34,-1.26 l -0.36,-1.8 q 13.32,-5.58 17.1,-16.56 3.42,-9.36 3.42,-24.84 l 0,-100.44 q -0.18,-4.68 -3.6,-7.92 -3.24,-3.24 -7.92,-3.24 l -2.34,0 0,-1.8 54.72,0 0,1.8 -2.34,0 q -6.48,0 -9.72,5.4 -1.62,2.52 -1.8,5.76 l 0,46.44 56.7,0 0,-43.2 q 0,-21.06 13.14,-33.48 10.44,-10.26 26.28,-10.26 3.6,0 7.56,0.54 l 0.36,1.8 q -13.14,4.68 -17.1,16.56 -3.24,9.72 -3.42,24.84 l 0,96.66 q 0.18,6.48 5.76,9.72 2.7,1.62 5.94,1.62 l 2.16,0 0,1.8 -54.54,0 0,-1.8 2.16,0 z"
           inkscape:connector-curvature="0" />
        <path
           id="path3418"
           style="font-style:normal;font-variant:normal;font-weight:bold;font-stretch:normal;font-size:180px;font-family:'Cinzel Decorative';-inkscape-font-specification:'Cinzel Decorative Bold';fill:#001cf2;fill-opacity:1"
           d="m 523.5675,29.38251 q 2.88,-0.18 9.18,-0.18 6.12,0 16.2,2.7 10.26,2.52 18.9,8.1 8.64,5.58 15.84,13.5 13.32,14.76 20.88,35.46 10.8,-30.78 28.08,-47.16 13.14,-12.42 28.98,-12.42 0.72,0 1.44,0 l 0,1.8 q -9,0.18 -18.72,9.54 -9.54,9.18 -16.74,22.32 -7.2,13.14 -12.24,27.36 -4.86,14.22 -5.76,24.66 l 0,37.62 q 0,4.5 3.24,7.92 3.42,3.42 8.28,3.42 l 2.34,0 0,1.8 -54.72,0 0,-1.8 2.34,0 q 4.68,0 7.92,-3.24 3.42,-3.42 3.6,-8.1 l 0,-37.8 q -2.16,-19.44 -12.96,-41.22 -12.42,-25.2 -27.9,-35.82 -9,-6.3 -18.18,-6.66 l 0,-1.8 z"
           inkscape:connector-curvature="0" />
        <path
           id="path3420"
           style="font-style:normal;font-variant:normal;font-weight:bold;font-stretch:normal;font-size:180px;font-family:'Cinzel Decorative';-inkscape-font-specification:'Cinzel Decorative Bold';fill:#001cf2;fill-opacity:1"
           d="m 851.16188,196.42251 q -14.04,7.02 -29.88,7.02 -14.04,0 -25.56,-4.32 -24.84,-9.18 -42.3,-35.82 -4.5,-6.48 -16.74,-24.84 -12.24,-18.36 -15.84,-23.4 -6.3,-9.9 -10.08,-10.8 l 0,-1.8 q 0.18,0 0.36,0 0.36,0 0.72,0 0.36,0 0.72,0 0.36,0 0.9,0 0.54,0 0.9,0 9.18,0 16.92,-4.14 11.7,-6.48 11.7,-23.94 0,-12.78 -7.2,-19.62 -7.2,-7.02 -17.28,-7.02 l -13.68,0 0,104.94 q 0,4.68 3.42,8.1 3.42,3.24 8.1,3.24 l 2.34,0 0,1.8 -54.72,0 0,-1.8 2.34,0 q 4.5,0 7.92,-3.24 3.42,-3.24 3.6,-7.92 l 0,-99.9 q -0.18,-4.68 -3.6,-7.92 -3.24,-3.42 -7.92,-3.42 l -2.34,0 0,-1.8 61.74,0 q 23.22,0 36,10.62 10.08,8.28 10.08,23.4 0,15.12 -9.9,24.66 -9.72,9.36 -22.32,9.36 -1.08,0 -2.34,-0.18 7.38,3.96 12.24,8.82 5.04,4.86 8.64,9.18 3.78,4.32 6.3,7.74 2.7,3.24 7.02,8.82 4.32,5.4 9,11.34 4.68,5.94 10.26,12.24 5.76,6.12 12.6,11.7 7.02,5.58 14.22,9.18 15.3,7.74 33.66,7.92 l 0,1.8 z"
           inkscape:connector-curvature="0" />
      </g>
      <g
         id="g3534">
        <g
           id="g3526">
          <path
             inkscape:connector-curvature="0"
             d="m 216.645,185.98251 q -7.02,8.46 -15.66,13.5 -8.46,5.04 -16.2,6.48 -7.74,1.44 -12.6,1.44 -4.86,0 -11.16,-0.36 -6.12,-0.36 -15.84,-3.06 -9.72,-2.52 -20.16,-6.12 -10.44,-3.6 -19.98,-7.92 -9.539998,-4.32 -19.439998,-8.64 -9.9,-4.14 -18.36,-7.56 -18.72,-7.74 -31.32,-7.92 l -1.26,0 0,-1.62 66.059998,-117 -43.559998,0 q -8.28,0.18 -13.32,5.22 -4.86,4.86 -4.86,13.14 l 0,2.16 -1.8,0 0,-31.32 q 2.7,1.08 9.36,2.16 6.84,1.08 9.54,1.08 2.88,0 2.88,0 l 57.419998,0 q 7.56,0 12.78,-0.9 5.22,-0.9 6.12,-1.44 l 0,1.62 -70.199998,125.46 5.4,1.26 q 6.3,1.8 19.26,5.22 13.139998,3.42 18.719998,4.86 5.76,1.62 16.56,4.32 10.98,2.7 16.2,3.78 5.4,1.08 14.4,2.88 9.18,1.8 14.22,2.16 14.04,0.9 17.82,0.9 3.96,0 7.74,-0.36 11.88,-1.44 19.98,-4.68 l 1.26,1.26 z"
             style="font-style:normal;font-variant:normal;font-weight:bold;font-stretch:normal;font-size:180px;font-family:'Cinzel Decorative';-inkscape-font-specification:'Cinzel Decorative Bold';fill:#87cefa;fill-opacity:1"
             id="path3491" />
          <path
             sodipodi:nodetypes="sscccsccssccccccccccsccccsscccsccccccs"
             inkscape:connector-curvature="0"
             d="m 153.18375,164.02251 c 3.12,0 5.76,-1.08 7.92,-3.24 2.28,-2.28 3.48,-4.98 3.6,-8.1 l 0,-100.26 c -0.36,-4.2 -2.34,-7.32 -5.94,-9.36 -1.8,-0.96 -3.66,-1.44 -5.58,-1.44 l -2.34,0 0,-1.8 50.58,0 c 5.28,0 9.9,-0.42 13.86,-1.26 3.96,-0.84 8.76958,-1.5 9.96958,-1.98 l 0,31.5 -4.20958,0 0,-2.16 c 0.12,-5.4 -1.44,-9.72 -4.68,-12.96 -3.12,-3.36 -7.38,-5.16 -12.78,-5.4 l -11.88,0 0,52.38 28.62,0 c 4.44,-0.12 8.1,-1.62 10.98,-4.5 2.88,-3 4.32,-6.66 4.32,-10.98 l 0,-1.62 1.62,0 0,41.58 -1.62,0 0,-1.44 c 0,-4.44 -1.44,-8.1 -4.32,-10.98 -2.88,-2.88 -6.48,-4.38 -10.8,-4.5 l -28.8,0 0,50.58 35.1,0 c 8.76,0 16.08,-2.52 21.96,-7.56 6,-5.04 10.44,-12.18 13.32,-21.42 l 1.8,0 -8.46,36.72 -104.58,0 0,-1.8 z"
             style="font-style:normal;font-variant:normal;font-weight:bold;font-stretch:normal;font-size:180px;font-family:'Cinzel Decorative';-inkscape-font-specification:'Cinzel Decorative Bold';fill:#87cefa;fill-opacity:1"
             id="path3493" />
          <path
             inkscape:connector-curvature="0"
             d="m 372.78656,91.48251 q -6.12,14.04 -22.68,19.44 -4.86,1.62 -9,1.62 -12.78,0 -22.86,-6.66 l 0,-1.8 q 13.5,0.36 21.78,-8.82 7.38,-7.92 7.38,-20.7 0,-19.62 -13.68,-25.38 -4.32,-1.8 -9.54,-1.8 l -12.06,0 0,105.3 q 0,4.68 3.42,8.1 3.42,3.24 8.1,3.24 l 2.34,0 0,1.8 -54.72,0 0,-1.8 2.34,0 q 4.68,0 7.92,-3.24 3.42,-3.42 3.6,-8.1 l 0,-100.62 q -0.72,-6.12 -6.12,-9 -2.52,-1.44 -5.4,-1.44 l -2.34,0 0,-1.8 60.12,0 q 32.58,0 41.76,20.7 2.88,6.84 2.88,15.3 0,8.28 -3.24,15.66 z"
             style="font-style:normal;font-variant:normal;font-weight:bold;font-stretch:normal;font-size:180px;font-family:'Cinzel Decorative';-inkscape-font-specification:'Cinzel Decorative Bold';fill:#87cefa;fill-opacity:1"
             id="path3495" />
          <path
             inkscape:connector-curvature="0"
             d="m 474.72844,164.02251 q 4.68,0 8.1,-3.24 3.42,-3.24 3.6,-7.92 l 0,-45.9 -56.7,0 0,46.26 q 0,21.6 -10.98,34.38 -8.64,10.08 -24.84,10.08 -5.22,0 -11.34,-1.26 l -0.36,-1.8 q 13.32,-5.58 17.1,-16.56 3.42,-9.36 3.42,-24.84 l 0,-100.44 q -0.18,-4.68 -3.6,-7.92 -3.24,-3.24 -7.92,-3.24 l -2.34,0 0,-1.8 54.72,0 0,1.8 -2.34,0 q -6.48,0 -9.72,5.4 -1.62,2.52 -1.8,5.76 l 0,46.44 56.7,0 0,-43.2 q 0,-21.06 13.14,-33.48 10.44,-10.26 26.28,-10.26 3.6,0 7.56,0.54 l 0.36,1.8 q -13.14,4.68 -17.1,16.56 -3.24,9.72 -3.42,24.84 l 0,96.66 q 0.18,6.48 5.76,9.72 2.7,1.62 5.94,1.62 l 2.16,0 0,1.8 -54.54,0 0,-1.8 2.16,0 z"
             style="font-style:normal;font-variant:normal;font-weight:bold;font-stretch:normal;font-size:180px;font-family:'Cinzel Decorative';-inkscape-font-specification:'Cinzel Decorative Bold';fill:#87cefa;fill-opacity:1"
             id="path3497" />
          <path
             inkscape:connector-curvature="0"
             d="m 523.5675,29.38251 q 2.88,-0.18 9.18,-0.18 6.12,0 16.2,2.7 10.26,2.52 18.9,8.1 8.64,5.58 15.84,13.5 13.32,14.76 20.88,35.46 10.8,-30.78 28.08,-47.16 13.14,-12.42 28.98,-12.42 0.72,0 1.44,0 l 0,1.8 q -9,0.18 -18.72,9.54 -9.54,9.18 -16.74,22.32 -7.2,13.14 -12.24,27.36 -4.86,14.22 -5.76,24.66 l 0,37.62 q 0,4.5 3.24,7.92 3.42,3.42 8.28,3.42 l 2.34,0 0,1.8 -54.72,0 0,-1.8 2.34,0 q 4.68,0 7.92,-3.24 3.42,-3.42 3.6,-8.1 l 0,-37.8 q -2.16,-19.44 -12.96,-41.22 -12.42,-25.2 -27.9,-35.82 -9,-6.3 -18.18,-6.66 l 0,-1.8 z"
             style="font-style:normal;font-variant:normal;font-weight:bold;font-stretch:normal;font-size:180px;font-family:'Cinzel Decorative';-inkscape-font-specification:'Cinzel Decorative Bold';fill:#87cefa;fill-opacity:1"
             id="path3499" />
          <path
             inkscape:connector-curvature="0"
             d="m 851.16188,196.42251 q -14.04,7.02 -29.88,7.02 -14.04,0 -25.56,-4.32 -24.84,-9.18 -42.3,-35.82 -4.5,-6.48 -16.74,-24.84 -12.24,-18.36 -15.84,-23.4 -6.3,-9.9 -10.08,-10.8 l 0,-1.8 q 0.18,0 0.36,0 0.36,0 0.72,0 0.36,0 0.72,0 0.36,0 0.9,0 0.54,0 0.9,0 9.18,0 16.92,-4.14 11.7,-6.48 11.7,-23.94 0,-12.78 -7.2,-19.62 -7.2,-7.02 -17.28,-7.02 l -13.68,0 0,104.94 q 0,4.68 3.42,8.1 3.42,3.24 8.1,3.24 l 2.34,0 0,1.8 -54.72,0 0,-1.8 2.34,0 q 4.5,0 7.92,-3.24 3.42,-3.24 3.6,-7.92 l 0,-99.9 q -0.18,-4.68 -3.6,-7.92 -3.24,-3.42 -7.92,-3.42 l -2.34,0 0,-1.8 61.74,0 q 23.22,0 36,10.62 10.08,8.28 10.08,23.4 0,15.12 -9.9,24.66 -9.72,9.36 -22.32,9.36 -1.08,0 -2.34,-0.18 7.38,3.96 12.24,8.82 5.04,4.86 8.64,9.18 3.78,4.32 6.3,7.74 2.7,3.24 7.02,8.82 4.32,5.4 9,11.34 4.68,5.94 10.26,12.24 5.76,6.12 12.6,11.7 7.02,5.58 14.22,9.18 15.3,7.74 33.66,7.92 l 0,1.8 z"
             style="font-style:normal;font-variant:normal;font-weight:bold;font-stretch:normal;font-size:180px;font-family:'Cinzel Decorative';-inkscape-font-specification:'Cinzel Decorative Bold';fill:#87cefa;fill-opacity:1"
             id="path3501" />
        </g>
      </g>
    </g>
  </g>
</svg>
