<?xml version="1.0" encoding="UTF-8" standalone="no"?>
<!-- Created with Inkscape (http://www.inkscape.org/) -->

<svg
   xmlns:dc="http://purl.org/dc/elements/1.1/"
   xmlns:cc="http://creativecommons.org/ns#"
   xmlns:rdf="http://www.w3.org/1999/02/22-rdf-syntax-ns#"
   xmlns:svg="http://www.w3.org/2000/svg"
   xmlns="http://www.w3.org/2000/svg"
   xmlns:sodipodi="http://sodipodi.sourceforge.net/DTD/sodipodi-0.dtd"
   xmlns:inkscape="http://www.inkscape.org/namespaces/inkscape"
   width="1000"
   height="450"
   viewBox="0 0 1000 450.00001"
   id="svg2"
   version="1.1"
   inkscape:version="0.91 r13725"
   inkscape:export-filename="/home/z/Documents/Projects/customgun.com/app/assets/images/theme/store_twitter/catalog.png"
   inkscape:export-xdpi="57.599998"
   inkscape:export-ydpi="57.599998"
   sodipodi:docname="catalog.svg">
  <defs
     id="defs4" />
  <sodipodi:namedview
     id="base"
     pagecolor="#ffffff"
     bordercolor="#666666"
     borderopacity="1.0"
     inkscape:pageopacity="0.0"
     inkscape:pageshadow="2"
     inkscape:zoom="0.49497475"
     inkscape:cx="47.822747"
     inkscape:cy="192.66203"
     inkscape:document-units="px"
     inkscape:current-layer="layer1"
     showgrid="false"
     units="px"
     inkscape:window-width="1920"
     inkscape:window-height="1016"
     inkscape:window-x="0"
     inkscape:window-y="30"
     inkscape:window-maximized="1" />
  <metadata
     id="metadata7">
    <rdf:RDF>
      <cc:Work
         rdf:about="">
        <dc:format>image/svg+xml</dc:format>
        <dc:type
           rdf:resource="http://purl.org/dc/dcmitype/StillImage" />
        <dc:title />
      </cc:Work>
    </rdf:RDF>
  </metadata>
  <g
     inkscape:label="Layer 1"
     inkscape:groupmode="layer"
     id="layer1"
     transform="translate(0,-602.36216)">
    <g
       id="g4202">
      <rect
         y="598.79071"
         x="-5.7142944"
         height="457.14285"
         width="1011.4286"
         id="rect4849"
         style="opacity:1;fill:#ffffff;fill-opacity:1;fill-rule:nonzero;stroke:none;stroke-width:4;stroke-miterlimit:4;stroke-dasharray:none;stroke-dashoffset:0;stroke-opacity:0" />
      <g
         id="text4141"
         style="font-style:normal;font-variant:normal;font-weight:normal;font-stretch:normal;font-size:27.5px;line-height:125%;font-family:Ubuntu;-inkscape-font-specification:Ubuntu;letter-spacing:0px;word-spacing:0px;fill:#000000;fill-opacity:1;stroke:none;stroke-width:1px;stroke-linecap:butt;stroke-linejoin:miter;stroke-opacity:1">
        <path
           id="path4157"
           style="font-style:normal;font-variant:normal;font-weight:normal;font-stretch:normal;font-size:80px;font-family:'Black Ops One';-inkscape-font-specification:'Black Ops One'"
           d="m 355.07812,694.76813 -6.875,0 -10.39062,-10.35157 0,-31.13281 10.39062,-10.35156 6.875,0 0,51.83594 z m 2.73438,-41.48438 0,-10.35156 18.39844,0 10.35156,10.35156 0,10.42969 -17.26563,0 0,-10.42969 -11.48437,0 z m 0,41.48438 0,-10.35157 11.48437,0 0,-7.57812 17.26563,0 0,7.57812 -10.35156,10.35157 -18.39844,0 z" />
        <path
           id="path4159"
           style="font-style:normal;font-variant:normal;font-weight:normal;font-stretch:normal;font-size:80px;font-family:'Black Ops One';-inkscape-font-specification:'Black Ops One'"
           d="m 421.67969,694.76813 0,-31.13282 -24.57032,0 0,-5.15625 5.19532,-5.19531 25.89843,0 10.35157,10.35156 0,31.13282 -16.875,0 z m -2.73438,-24.14063 0,7.1875 -8.90625,0 0,7.26563 8.90625,0 0,4.57031 -5.15625,5.11719 -13.20312,0 -6.95313,-6.83594 0,-10.39063 6.95313,-6.91406 18.35937,0 z" />
        <path
           id="path4161"
           style="font-style:normal;font-variant:normal;font-weight:normal;font-stretch:normal;font-size:80px;font-family:'Black Ops One';-inkscape-font-specification:'Black Ops One'"
           d="m 464.10156,684.41656 11.40625,0 0,10.35157 -18.28125,0 -10.39062,-10.35157 0,-20.78125 -3.4375,0 0,-10.35156 3.4375,0 0,-4.49219 17.26562,-5.85937 0,41.48437 z m 2.73438,-20.78125 0,-10.35156 9.29687,0 0,10.35156 -9.29687,0 z" />
        <path
           id="path4163"
           style="font-style:normal;font-variant:normal;font-weight:normal;font-stretch:normal;font-size:80px;font-family:'Black Ops One';-inkscape-font-specification:'Black Ops One'"
           d="m 509.49219,694.76813 0,-31.13282 -24.57032,0 0,-5.15625 5.19532,-5.19531 25.89843,0 10.35157,10.35156 0,31.13282 -16.875,0 z m -2.73438,-24.14063 0,7.1875 -8.90625,0 0,7.26563 8.90625,0 0,4.57031 -5.15625,5.11719 -13.20312,0 -6.95313,-6.83594 0,-10.39063 6.95313,-6.91406 18.35937,0 z" />
        <path
           id="path4165"
           style="font-style:normal;font-variant:normal;font-weight:normal;font-stretch:normal;font-size:80px;font-family:'Black Ops One';-inkscape-font-specification:'Black Ops One'"
           d="m 559.17969,694.76813 -15.3125,0 -9.6875,-9.6875 0,-47.61719 17.26562,0 0,46.95312 7.73438,0 0,10.35157 z" />
        <path
           id="path4167"
           style="font-style:normal;font-variant:normal;font-weight:normal;font-stretch:normal;font-size:80px;font-family:'Black Ops One';-inkscape-font-specification:'Black Ops One'"
           d="m 609.80469,684.41656 -10.35157,10.35157 -11.5625,0 0,-9.6875 4.29688,0 0,-21.44532 -4.29688,0 0,-10.35156 11.5625,0 10.35157,10.35156 0,20.78125 z m -29.14063,0.66407 4.49219,0 0,9.6875 -11.60156,0 -10.35157,-10.35157 0,-20.78125 10.35157,-10.35156 11.60156,0 0,10.35156 -4.49219,0 0,21.44532 z" />
        <path
           id="path4169"
           style="font-style:normal;font-variant:normal;font-weight:normal;font-stretch:normal;font-size:80px;font-family:'Black Ops One';-inkscape-font-specification:'Black Ops One'"
           d="m 644.92187,663.63531 -7.65625,0 0,-10.35156 14.57032,0 10.35156,10.35156 0,35.23438 -10.35156,10.42969 -22.77344,0 -5.19531,-5.23438 0,-3.82812 21.05468,0 0,-36.60157 z m -2.73437,21.44532 0,4.57031 -5.15625,5.11719 -9.41406,0 -10.35157,-10.35157 0,-20.78125 10.35157,-10.35156 6.91406,0 0,31.79688 7.65625,0 z" />
      </g>
      <g
         id="text4152"
         style="font-style:normal;font-variant:normal;font-weight:normal;font-stretch:normal;font-size:27.5px;line-height:125%;font-family:Ubuntu;-inkscape-font-specification:Ubuntu;letter-spacing:0px;word-spacing:0px;fill:#000000;fill-opacity:1;stroke:none;stroke-width:1px;stroke-linecap:butt;stroke-linejoin:miter;stroke-opacity:1">
        <path
           id="path4172"
           style="font-style:normal;font-variant:normal;font-weight:normal;font-stretch:normal;font-size:80px;font-family:'Black Ops One';-inkscape-font-specification:'Black Ops One'"
           d="m 100.46875,837.75281 14.80469,0 0,10.35156 -21.718753,0 -10.351562,-10.35156 0,-31.13281 10.351562,-10.35157 6.914063,0 0,41.48438 z m 9.14063,-18.39844 23.71093,0 0,28.75 -15.3125,0 0,-18.47656 -8.39843,0 0,-10.27344 z m -6.40625,-12.73437 0,-10.35157 21.05468,0 9.0625,10.35157 0,5.19531 -17.26562,0 0,-5.19531 -12.85156,0 z" />
        <path
           id="path4174"
           style="font-style:normal;font-variant:normal;font-weight:normal;font-stretch:normal;font-size:80px;font-family:'Black Ops One';-inkscape-font-specification:'Black Ops One'"
           d="m 185.82031,806.62 0,41.48437 -17.26562,0 0,-41.48437 17.26562,0 z m -27.69531,31.13281 7.69531,0 0,5.15625 -5,5.19531 -9.57031,0 -10.39063,-10.35156 0,-31.13281 17.26563,0 0,31.13281 z" />
        <path
           id="path4176"
           style="font-style:normal;font-variant:normal;font-weight:normal;font-stretch:normal;font-size:80px;font-family:'Black Ops One';-inkscape-font-specification:'Black Ops One'"
           d="m 194.02344,848.10437 0,-41.48437 17.42187,0 0,41.48437 -17.42187,0 z m 27.65625,-31.13281 -7.42188,0 0,-4.53125 5.78125,-5.82031 9.60938,0 9.33593,9.33593 0,32.14844 -17.30468,0 0,-31.13281 z" />
        <path
           id="path4178"
           style="font-style:normal;font-variant:normal;font-weight:normal;font-stretch:normal;font-size:80px;font-family:'Black Ops One';-inkscape-font-specification:'Black Ops One'"
           d="m 256.01562,806.62 6.91407,0 0,14.64843 19.6875,0 8.98437,9.0625 0,8.08594 -9.64844,9.6875 -7.61718,0 0,-15.66406 -18.67188,0 -8.98437,-8.63281 0,-7.89063 9.33593,-9.29687 z m 7.92969,33.86718 7.65625,0 0,7.61719 -17.77344,-0.0391 -7.1875,-8.51563 0,-3.32031 17.30469,0 0,4.25781 z m 10.39063,-26.25 -8.67188,0 0,-7.61718 18.35938,0 6.17187,6.17187 0,4.6875 -15.85937,0 0,-3.24219 z" />
        <path
           id="path4180"
           style="font-style:normal;font-variant:normal;font-weight:normal;font-stretch:normal;font-size:80px;font-family:'Black Ops One';-inkscape-font-specification:'Black Ops One'"
           d="m 300.07812,836.03406 17.26563,0 0,12.07031 -6.91406,10.35156 -10.35157,0 4.80469,-10.35156 -4.80469,0 0,-12.07031 z" />
        <path
           id="path4182"
           style="font-style:normal;font-variant:normal;font-weight:normal;font-stretch:normal;font-size:80px;font-family:'Black Ops One';-inkscape-font-specification:'Black Ops One'"
           d="m 365.625,837.75281 14.80469,0 0,10.35156 -21.71875,0 -10.35157,-10.35156 0,-31.13281 10.35157,-10.35157 6.91406,0 0,41.48438 z m 9.14062,-18.39844 23.71094,0 0,28.75 -15.3125,0 0,-18.47656 -8.39844,0 0,-10.27344 z m -6.40625,-12.73437 0,-10.35157 21.05469,0 9.0625,10.35157 0,5.19531 -17.26562,0 0,-5.19531 -12.85157,0 z" />
        <path
           id="path4184"
           style="font-style:normal;font-variant:normal;font-weight:normal;font-stretch:normal;font-size:80px;font-family:'Black Ops One';-inkscape-font-specification:'Black Ops One'"
           d="m 423.28125,848.10437 -6.91406,0 -10.35157,-10.35156 0,-20.78125 10.35157,-10.35156 6.91406,0 0,41.48437 z m 2.73437,-16.64062 0,-7.22657 9.10157,0 0,-7.26562 -9.10157,0 0,-10.35156 14.64844,0 10.35156,10.35156 0,14.49219 -25,0 z m 0,16.64062 0,-9.6875 23.20313,0 0,4.49219 -5.15625,5.19531 -18.04688,0 z" />
        <path
           id="path4186"
           style="font-style:normal;font-variant:normal;font-weight:normal;font-stretch:normal;font-size:80px;font-family:'Black Ops One';-inkscape-font-specification:'Black Ops One'"
           d="m 485.74219,848.10437 0,-31.13281 -24.57032,0 0,-5.15625 5.19532,-5.19531 25.89843,0 10.35157,10.35156 0,31.13281 -16.875,0 z m -2.73438,-24.14062 0,7.1875 -8.90625,0 0,7.26562 8.90625,0 0,4.57031 -5.15625,5.11719 -13.20312,0 -6.95313,-6.83594 0,-10.39062 6.95313,-6.91406 18.35937,0 z" />
        <path
           id="path4188"
           style="font-style:normal;font-variant:normal;font-weight:normal;font-stretch:normal;font-size:80px;font-family:'Black Ops One';-inkscape-font-specification:'Black Ops One'"
           d="m 537.8125,816.97156 -7.34375,0 0,-4.53125 5.78125,-5.82031 10.46875,0 8.39844,9.6875 0,10.74218 -17.30469,0 0,-10.07812 z m -27.38281,31.13281 0,-41.48437 17.26562,0 0,41.48437 -17.26562,0 z" />
        <path
           id="path4190"
           style="font-style:normal;font-variant:normal;font-weight:normal;font-stretch:normal;font-size:80px;font-family:'Black Ops One';-inkscape-font-specification:'Black Ops One'"
           d="m 562.10937,836.03406 17.26563,0 0,12.07031 -6.91406,10.35156 -10.35157,0 4.80469,-10.35156 -4.80469,0 0,-12.07031 z" />
        <path
           id="path4192"
           style="font-style:normal;font-variant:normal;font-weight:normal;font-stretch:normal;font-size:80px;font-family:'Black Ops One';-inkscape-font-specification:'Black Ops One'"
           d="m 617.07031,812.79187 -0.0391,-0.0391 0,-7.73438 8.82812,-8.75 7.77344,0 0,13.55469 13.67188,15.85938 11.75781,-9.14063 8.51562,9.84375 -11.5625,9.41406 10.625,12.30469 -19.10156,0 -30.46875,-35.3125 z m 3.4375,35.3125 -8.71094,-8.55469 0,-12.5 7.46094,-7.69531 8.04688,9.375 0,9.41406 8.24218,0 6.79688,8.04688 -2.22656,1.91406 -19.60938,0 z m 38.71094,-43.16406 0,6.875 -16.21094,0 0,-5.19531 -6.64062,0 0,-10.35157 14.17968,0 8.67188,8.67188 z" />
        <path
           id="path4194"
           style="font-style:normal;font-variant:normal;font-weight:normal;font-stretch:normal;font-size:80px;font-family:'Black Ops One';-inkscape-font-specification:'Black Ops One'"
           d="m 696.44531,796.26843 18.35938,0 13.90625,23.04688 10.9375,-18.75 0,26.09375 -12.46094,21.44531 -30.74219,-51.83594 z m 45.74219,51.83594 0,-51.83594 17.26562,0 0,51.83594 -17.26562,0 z m -45.78125,0 0,-47.03125 16.13281,27.07031 0,19.96094 -16.13281,0 z" />
        <path
           id="path4196"
           style="font-style:normal;font-variant:normal;font-weight:normal;font-stretch:normal;font-size:80px;font-family:'Black Ops One';-inkscape-font-specification:'Black Ops One'"
           d="m 814.33594,837.75281 -10.35157,10.35156 -11.5625,0 0,-9.6875 4.29688,0 0,-21.44531 -4.29688,0 0,-10.35156 11.5625,0 10.35157,10.35156 0,20.78125 z m -29.14063,0.66406 4.49219,0 0,9.6875 -11.60156,0 -10.35157,-10.35156 0,-20.78125 10.35157,-10.35156 11.60156,0 0,10.35156 -4.49219,0 0,21.44531 z" />
        <path
           id="path4198"
           style="font-style:normal;font-variant:normal;font-weight:normal;font-stretch:normal;font-size:80px;font-family:'Black Ops One';-inkscape-font-specification:'Black Ops One'"
           d="m 849.53125,816.97156 -7.34375,0 0,-4.53125 5.78125,-5.82031 10.46875,0 8.39844,9.6875 0,10.74218 -17.30469,0 0,-10.07812 z m -27.38281,31.13281 0,-41.48437 17.26562,0 0,41.48437 -17.26562,0 z" />
        <path
           id="path4200"
           style="font-style:normal;font-variant:normal;font-weight:normal;font-stretch:normal;font-size:80px;font-family:'Black Ops One';-inkscape-font-specification:'Black Ops One'"
           d="m 889.0625,848.10437 -6.91406,0 -10.35157,-10.35156 0,-20.78125 10.35157,-10.35156 6.91406,0 0,41.48437 z m 2.73437,-16.64062 0,-7.22657 9.10157,0 0,-7.26562 -9.10157,0 0,-10.35156 14.64844,0 10.35156,10.35156 0,14.49219 -25,0 z m 0,16.64062 0,-9.6875 23.20313,0 0,4.49219 -5.15625,5.19531 -18.04688,0 z" />
      </g>
    </g>
  </g>
</svg>
