<?xml version="1.0" encoding="UTF-8" standalone="no"?>
<!-- Created with Inkscape (http://www.inkscape.org/) -->

<svg
   xmlns:dc="http://purl.org/dc/elements/1.1/"
   xmlns:cc="http://creativecommons.org/ns#"
   xmlns:rdf="http://www.w3.org/1999/02/22-rdf-syntax-ns#"
   xmlns:svg="http://www.w3.org/2000/svg"
   xmlns="http://www.w3.org/2000/svg"
   xmlns:sodipodi="http://sodipodi.sourceforge.net/DTD/sodipodi-0.dtd"
   xmlns:inkscape="http://www.inkscape.org/namespaces/inkscape"
   width="1000"
   height="450"
   viewBox="0 0 1000 450.00001"
   id="svg2"
   version="1.1"
   inkscape:version="0.91 r13725"
   inkscape:export-filename="/home/tammy/image4846.png"
   inkscape:export-xdpi="90"
   inkscape:export-ydpi="90"
   sodipodi:docname="decor.svg">
  <defs
     id="defs4" />
  <sodipodi:namedview
     id="base"
     pagecolor="#ffffff"
     bordercolor="#666666"
     borderopacity="1.0"
     inkscape:pageopacity="0.0"
     inkscape:pageshadow="2"
     inkscape:zoom="0.35"
     inkscape:cx="-221.55533"
     inkscape:cy="116.75891"
     inkscape:document-units="px"
     inkscape:current-layer="layer1"
     showgrid="false"
     units="px"
     inkscape:window-width="1920"
     inkscape:window-height="999"
     inkscape:window-x="1920"
     inkscape:window-y="29"
     inkscape:window-maximized="1" />
  <metadata
     id="metadata7">
    <rdf:RDF>
      <cc:Work
         rdf:about="">
        <dc:format>image/svg+xml</dc:format>
        <dc:type
           rdf:resource="http://purl.org/dc/dcmitype/StillImage" />
        <dc:title />
      </cc:Work>
    </rdf:RDF>
  </metadata>
  <g
     inkscape:label="Layer 1"
     inkscape:groupmode="layer"
     id="layer1"
     transform="translate(0,-602.36216)">
    <g
       id="g5249">
      <rect
         y="598.79071"
         x="-5.7142944"
         height="457.14285"
         width="1011.4286"
         id="rect4849"
         style="opacity:1;fill:#ffffff;fill-opacity:1;fill-rule:nonzero;stroke:none;stroke-width:4;stroke-miterlimit:4;stroke-dasharray:none;stroke-dashoffset:0;stroke-opacity:0" />
      <g
         id="text4684"
         style="color:#000000;font-style:normal;font-variant:normal;font-weight:normal;font-stretch:normal;font-size:60px;line-height:125%;font-family:'Black Ops One';-inkscape-font-specification:'Black Ops One';text-indent:0;text-align:center;text-decoration:none;text-decoration-line:none;letter-spacing:0px;word-spacing:0px;text-transform:none;direction:ltr;block-progression:tb;writing-mode:lr-tb;baseline-shift:baseline;text-anchor:middle;display:inline;overflow:visible;visibility:visible;fill:#000000;fill-opacity:1;fill-rule:nonzero;stroke:none;stroke-width:1px;stroke-linecap:butt;stroke-linejoin:miter;stroke-opacity:1;marker:none;enable-background:accumulate">
        <path
           id="path8712"
           style="font-size:80px"
           d="m 389.94141,691.73773 0,-10.35156 12.8125,0 0,-31.13281 -12.8125,0 0,-10.35157 19.72656,0 10.39062,10.35157 0,31.13281 -10.39062,10.35156 -19.72656,0 z m -20,-51.83594 17.26562,0 0,51.83594 -17.26562,0 0,-51.83594 z" />
        <path
           id="path8714"
           style="font-size:80px"
           d="m 444.47266,691.73773 -6.91407,0 -10.35156,-10.35156 0,-20.78125 10.35156,-10.35156 6.91407,0 0,41.48437 z m 2.73437,-16.64062 0,-7.22657 9.10156,0 0,-7.26562 -9.10156,0 0,-10.35156 14.64844,0 10.35156,10.35156 0,14.49219 -25,0 z m 0,16.64062 0,-9.6875 23.20313,0 0,4.49219 -5.15625,5.19531 -18.04688,0 z m 10.23438,-62.77344 7.1875,3.32032 -2.10938,8.24218 -21.64062,6.52344 -2.42188,-5.74219 18.98438,-12.34375 z" />
        <path
           id="path8716"
           style="font-size:80px"
           d="m 496.50391,691.73773 -6.91407,0 -10.35156,-10.35156 0,-20.78125 10.35156,-10.35156 6.91407,0 0,41.48437 z m 2.73437,-31.13281 0,-10.35156 14.57031,0 10.35157,10.35156 0,6.21094 -17.26563,0 0,-6.21094 -7.65625,0 z m 0,31.13281 0,-9.6875 7.65625,0 0,-5.19531 17.26563,0 0,4.53125 -10.35157,10.35156 -14.57031,0 z" />
        <path
           id="path8718"
           style="font-size:80px"
           d="m 577.55859,681.38617 -10.35156,10.35156 -11.5625,0 0,-9.6875 4.29688,0 0,-21.44531 -4.29688,0 0,-10.35156 11.5625,0 10.35156,10.35156 0,20.78125 z m -29.14062,0.66406 4.49219,0 0,9.6875 -11.60157,0 -10.35156,-10.35156 0,-20.78125 10.35156,-10.35156 11.60157,0 0,10.35156 -4.49219,0 0,21.44531 z" />
        <path
           id="path8720"
           style="font-size:80px"
           d="m 612.75391,660.60492 -7.34375,0 0,-4.53125 5.78125,-5.82031 10.46875,0 8.39843,9.6875 0,10.74218 -17.30468,0 0,-10.07812 z m -27.38282,31.13281 0,-41.48437 17.26563,0 0,41.48437 -17.26563,0 z" />
      </g>
    </g>
  </g>
</svg>
