<?xml version="1.0" encoding="UTF-8" standalone="no"?>
<!-- Created with Inkscape (http://www.inkscape.org/) -->

<svg
   xmlns:dc="http://purl.org/dc/elements/1.1/"
   xmlns:cc="http://creativecommons.org/ns#"
   xmlns:rdf="http://www.w3.org/1999/02/22-rdf-syntax-ns#"
   xmlns:svg="http://www.w3.org/2000/svg"
   xmlns="http://www.w3.org/2000/svg"
   xmlns:sodipodi="http://sodipodi.sourceforge.net/DTD/sodipodi-0.dtd"
   xmlns:inkscape="http://www.inkscape.org/namespaces/inkscape"
   width="1000"
   height="450"
   viewBox="0 0 1000 450.00001"
   id="svg2"
   version="1.1"
   inkscape:version="0.91 r13725"
   inkscape:export-filename="/home/tammy/image4846.png"
   inkscape:export-xdpi="90"
   inkscape:export-ydpi="90"
   sodipodi:docname="gun_cases.svg">
  <defs
     id="defs4" />
  <sodipodi:namedview
     id="base"
     pagecolor="#ffffff"
     bordercolor="#666666"
     borderopacity="1.0"
     inkscape:pageopacity="0.0"
     inkscape:pageshadow="2"
     inkscape:zoom="0.35"
     inkscape:cx="-865.71429"
     inkscape:cy="116.75891"
     inkscape:document-units="px"
     inkscape:current-layer="layer1"
     showgrid="false"
     units="px"
     inkscape:window-width="1920"
     inkscape:window-height="999"
     inkscape:window-x="1920"
     inkscape:window-y="29"
     inkscape:window-maximized="1" />
  <metadata
     id="metadata7">
    <rdf:RDF>
      <cc:Work
         rdf:about="">
        <dc:format>image/svg+xml</dc:format>
        <dc:type
           rdf:resource="http://purl.org/dc/dcmitype/StillImage" />
        <dc:title />
      </cc:Work>
    </rdf:RDF>
  </metadata>
  <g
     inkscape:label="Layer 1"
     inkscape:groupmode="layer"
     id="layer1"
     transform="translate(0,-602.36216)">
    <g
       id="g5258">
      <path
         id="rect4849"
         d="m -5.7142944,598.79071 1011.4285944,0 0,457.14289 -1011.4285944,0 z"
         style="opacity:1;fill:#ffffff;fill-opacity:1;fill-rule:nonzero;stroke:none;stroke-width:4;stroke-miterlimit:4;stroke-dasharray:none;stroke-dashoffset:0;stroke-opacity:0" />
      <g
         id="text4684"
         style="color:#000000;font-style:normal;font-variant:normal;font-weight:normal;font-stretch:normal;font-size:60px;line-height:125%;font-family:'Black Ops One';-inkscape-font-specification:'Black Ops One';text-indent:0;text-align:center;text-decoration:none;text-decoration-line:none;letter-spacing:0px;word-spacing:0px;text-transform:none;direction:ltr;block-progression:tb;writing-mode:lr-tb;baseline-shift:baseline;text-anchor:middle;display:inline;overflow:visible;visibility:visible;fill:#000000;fill-opacity:1;fill-rule:nonzero;stroke:none;stroke-width:1px;stroke-linecap:butt;stroke-linejoin:miter;stroke-opacity:1;marker:none;enable-background:accumulate">
        <path
           id="path8569"
           style="font-size:80px"
           d="m 296.81641,681.38617 14.80468,0 0,10.35156 -21.71875,0 -10.35156,-10.35156 0,-31.13281 10.35156,-10.35157 6.91407,0 0,41.48438 z m 9.14062,-18.39844 23.71094,0 0,28.75 -15.3125,0 0,-18.47656 -8.39844,0 0,-10.27344 z m -6.40625,-12.73437 0,-10.35157 21.05469,0 9.0625,10.35157 0,5.19531 -17.26563,0 0,-5.19531 -12.85156,0 z" />
        <path
           id="path8571"
           style="font-size:80px"
           d="m 382.16797,650.25336 0,41.48437 -17.26563,0 0,-41.48437 17.26563,0 z m -27.69531,31.13281 7.69531,0 0,5.15625 -5,5.19531 -9.57031,0 -10.39063,-10.35156 0,-31.13281 17.26563,0 0,31.13281 z" />
        <path
           id="path8573"
           style="font-size:80px"
           d="m 390.37109,691.73773 0,-41.48437 17.42188,0 0,41.48437 -17.42188,0 z m 27.65625,-31.13281 -7.42187,0 0,-4.53125 5.78125,-5.82031 9.60937,0 9.33594,9.33593 0,32.14844 -17.30469,0 0,-31.13281 z" />
        <path
           id="path8575"
           style="font-size:80px"
           d="m 481.11328,691.73773 -6.875,0 -10.39062,-10.35156 0,-31.13281 10.39062,-10.35157 6.875,0 0,51.83594 z m 2.73438,-41.48437 0,-10.35157 18.39843,0 10.35157,10.35157 0,10.42968 -17.26563,0 0,-10.42968 -11.48437,0 z m 0,41.48437 0,-10.35156 11.48437,0 0,-7.57813 17.26563,0 0,7.57813 -10.35157,10.35156 -18.39843,0 z" />
        <path
           id="path8577"
           style="font-size:80px"
           d="m 547.71484,691.73773 0,-31.13281 -24.57031,0 0,-5.15625 5.19531,-5.19531 25.89844,0 10.35156,10.35156 0,31.13281 -16.875,0 z m -2.73437,-24.14062 0,7.1875 -8.90625,0 0,7.26562 8.90625,0 0,4.57031 -5.15625,5.11719 -13.20313,0 -6.95312,-6.83594 0,-10.39062 6.95312,-6.91406 18.35938,0 z" />
        <path
           id="path8579"
           style="font-size:80px"
           d="m 581.42578,650.25336 6.91406,0 0,14.64843 19.6875,0 8.98438,9.0625 0,8.08594 -9.64844,9.6875 -7.61719,0 0,-15.66406 -18.67187,0 -8.98438,-8.63281 0,-7.89063 9.33594,-9.29687 z m 7.92969,33.86718 7.65625,0 0,7.61719 -17.77344,-0.0391 -7.1875,-8.51563 0,-3.32031 17.30469,0 0,4.25781 z m 10.39062,-26.25 -8.67187,0 0,-7.61718 18.35937,0 6.17188,6.17187 0,4.6875 -15.85938,0 0,-3.24219 z" />
        <path
           id="path8581"
           style="font-size:80px"
           d="m 640.72266,691.73773 -6.91407,0 -10.35156,-10.35156 0,-20.78125 10.35156,-10.35156 6.91407,0 0,41.48437 z m 2.73437,-16.64062 0,-7.22657 9.10156,0 0,-7.26562 -9.10156,0 0,-10.35156 14.64844,0 10.35156,10.35156 0,14.49219 -25,0 z m 0,16.64062 0,-9.6875 23.20313,0 0,4.49219 -5.15625,5.19531 -18.04688,0 z" />
        <path
           id="path8583"
           style="font-size:80px"
           d="m 684.86328,650.25336 6.91406,0 0,14.64843 19.6875,0 8.98438,9.0625 0,8.08594 -9.64844,9.6875 -7.61719,0 0,-15.66406 -18.67187,0 -8.98438,-8.63281 0,-7.89063 9.33594,-9.29687 z m 7.92969,33.86718 7.65625,0 0,7.61719 -17.77344,-0.0391 -7.1875,-8.51563 0,-3.32031 17.30469,0 0,4.25781 z m 10.39062,-26.25 -8.67187,0 0,-7.61718 18.35937,0 6.17188,6.17187 0,4.6875 -15.85938,0 0,-3.24219 z" />
      </g>
    </g>
  </g>
</svg>
