<?xml version="1.0" encoding="UTF-8" standalone="no"?>
<!-- Created with Inkscape (http://www.inkscape.org/) -->

<svg
   xmlns:dc="http://purl.org/dc/elements/1.1/"
   xmlns:cc="http://creativecommons.org/ns#"
   xmlns:rdf="http://www.w3.org/1999/02/22-rdf-syntax-ns#"
   xmlns:svg="http://www.w3.org/2000/svg"
   xmlns="http://www.w3.org/2000/svg"
   xmlns:sodipodi="http://sodipodi.sourceforge.net/DTD/sodipodi-0.dtd"
   xmlns:inkscape="http://www.inkscape.org/namespaces/inkscape"
   width="1000"
   height="450"
   viewBox="0 0 1000 450.00001"
   id="svg2"
   version="1.1"
   inkscape:version="0.91 r13725"
   inkscape:export-filename="/home/tammy/image4846.png"
   inkscape:export-xdpi="90"
   inkscape:export-ydpi="90"
   sodipodi:docname="jewelry.svg">
  <defs
     id="defs4" />
  <sodipodi:namedview
     id="base"
     pagecolor="#ffffff"
     bordercolor="#666666"
     borderopacity="1.0"
     inkscape:pageopacity="0.0"
     inkscape:pageshadow="2"
     inkscape:zoom="0.35"
     inkscape:cx="-1192.9839"
     inkscape:cy="116.75891"
     inkscape:document-units="px"
     inkscape:current-layer="layer1"
     showgrid="false"
     units="px"
     inkscape:window-width="1920"
     inkscape:window-height="999"
     inkscape:window-x="1920"
     inkscape:window-y="29"
     inkscape:window-maximized="1" />
  <metadata
     id="metadata7">
    <rdf:RDF>
      <cc:Work
         rdf:about="">
        <dc:format>image/svg+xml</dc:format>
        <dc:type
           rdf:resource="http://purl.org/dc/dcmitype/StillImage" />
        <dc:title />
      </cc:Work>
    </rdf:RDF>
  </metadata>
  <g
     inkscape:label="Layer 1"
     inkscape:groupmode="layer"
     id="layer1"
     transform="translate(0,-602.36216)">
    <g
       id="g5270">
      <rect
         y="598.79071"
         x="-5.7142944"
         height="457.14285"
         width="1011.4286"
         id="rect4849"
         style="opacity:1;fill:#ffffff;fill-opacity:1;fill-rule:nonzero;stroke:none;stroke-width:4;stroke-miterlimit:4;stroke-dasharray:none;stroke-dashoffset:0;stroke-opacity:0" />
      <g
         id="text4684"
         style="color:#000000;font-style:normal;font-variant:normal;font-weight:normal;font-stretch:normal;font-size:60px;line-height:125%;font-family:'Black Ops One';-inkscape-font-specification:'Black Ops One';text-indent:0;text-align:center;text-decoration:none;text-decoration-line:none;letter-spacing:0px;word-spacing:0px;text-transform:none;direction:ltr;block-progression:tb;writing-mode:lr-tb;baseline-shift:baseline;text-anchor:middle;display:inline;overflow:visible;visibility:visible;fill:#000000;fill-opacity:1;fill-rule:nonzero;stroke:none;stroke-width:1px;stroke-linecap:butt;stroke-linejoin:miter;stroke-opacity:1;marker:none;enable-background:accumulate">
        <path
           id="path8655"
           style="font-size:80px"
           d="m 328.30078,639.90179 41.09375,0 0,41.48438 -10.35156,10.35156 -6.91406,0 0,-40.54687 -23.82813,0 0,-11.28907 z m 11.64063,41.48438 9.45312,0 0,10.35156 -16.99219,0 -10.39062,-10.35156 0,-11.36719 17.92969,0 0,11.36719 z" />
        <path
           id="path8657"
           style="font-size:80px"
           d="m 394.39453,691.73773 -6.91406,0 -10.35156,-10.35156 0,-20.78125 10.35156,-10.35156 6.91406,0 0,41.48437 z m 2.73438,-16.64062 0,-7.22657 9.10156,0 0,-7.26562 -9.10156,0 0,-10.35156 14.64843,0 10.35157,10.35156 0,14.49219 -25,0 z m 0,16.64062 0,-9.6875 23.20312,0 0,4.49219 -5.15625,5.19531 -18.04687,0 z" />
        <path
           id="path8659"
           style="font-size:80px"
           d="m 424.90234,650.25336 16.48438,0 6.75781,21.60156 4.80469,-14.96094 6.21094,19.10156 -4.92188,15.78125 -0.0391,-0.0391 -14.41406,0 -14.88282,-41.48437 z m 28.28125,0 16.28907,0 13.35937,41.48437 -15.66406,0 -13.98438,-41.48437 z m 31.36719,38.90625 -7.26562,-22.34375 4.64843,-16.5625 16.17188,0 -13.55469,38.90625 z" />
        <path
           id="path8661"
           style="font-size:80px"
           d="m 518.61328,691.73773 -6.91406,0 -10.35156,-10.35156 0,-20.78125 10.35156,-10.35156 6.91406,0 0,41.48437 z m 2.73438,-16.64062 0,-7.22657 9.10156,0 0,-7.26562 -9.10156,0 0,-10.35156 14.64843,0 10.35157,10.35156 0,14.49219 -25,0 z m 0,16.64062 0,-9.6875 23.20312,0 0,4.49219 -5.15625,5.19531 -18.04687,0 z" />
        <path
           id="path8663"
           style="font-size:80px"
           d="m 578.73047,691.73773 -15.3125,0 -9.6875,-9.6875 0,-47.61719 17.26562,0 0,46.95313 7.73438,0 0,10.35156 z" />
        <path
           id="path8665"
           style="font-size:80px"
           d="m 610.48828,660.60492 -7.34375,0 0,-4.53125 5.78125,-5.82031 10.46875,0 8.39844,9.6875 0,10.74218 -17.30469,0 0,-10.07812 z m -27.38281,31.13281 0,-41.48437 17.26562,0 0,41.48437 -17.26562,0 z" />
        <path
           id="path8667"
           style="font-size:80px"
           d="m 656.23047,706.19086 -16.5625,0 21.01562,-55.9375 16.60157,0 -21.05469,55.9375 z m -27.73438,-55.9375 17.22657,0 5.82031,16.875 -7.73438,21.13281 -15.3125,-38.00781 z" />
      </g>
    </g>
  </g>
</svg>
