<?xml version="1.0" encoding="UTF-8" standalone="no"?>
<!-- Created with Inkscape (http://www.inkscape.org/) -->

<svg
   xmlns:dc="http://purl.org/dc/elements/1.1/"
   xmlns:cc="http://creativecommons.org/ns#"
   xmlns:rdf="http://www.w3.org/1999/02/22-rdf-syntax-ns#"
   xmlns:svg="http://www.w3.org/2000/svg"
   xmlns="http://www.w3.org/2000/svg"
   xmlns:sodipodi="http://sodipodi.sourceforge.net/DTD/sodipodi-0.dtd"
   xmlns:inkscape="http://www.inkscape.org/namespaces/inkscape"
   width="1000"
   height="450"
   viewBox="0 0 1000 450.00001"
   id="svg2"
   version="1.1"
   inkscape:version="0.91 r13725"
   inkscape:export-filename="/home/z/Documents/Projects/customgun.com/app/assets/images/theme/store_default/new_arrivals.png"
   inkscape:export-xdpi="90"
   inkscape:export-ydpi="90"
   sodipodi:docname="new_arrivals.svg">
  <defs
     id="defs4" />
  <sodipodi:namedview
     id="base"
     pagecolor="#ffffff"
     bordercolor="#666666"
     borderopacity="1.0"
     inkscape:pageopacity="0.0"
     inkscape:pageshadow="2"
     inkscape:zoom="0.98994949"
     inkscape:cx="397.89401"
     inkscape:cy="189.74407"
     inkscape:document-units="px"
     inkscape:current-layer="layer1"
     showgrid="false"
     units="px"
     inkscape:window-width="1920"
     inkscape:window-height="1025"
     inkscape:window-x="1920"
     inkscape:window-y="27"
     inkscape:window-maximized="1" />
  <metadata
     id="metadata7">
    <rdf:RDF>
      <cc:Work
         rdf:about="">
        <dc:format>image/svg+xml</dc:format>
        <dc:type
           rdf:resource="http://purl.org/dc/dcmitype/StillImage" />
        <dc:title />
      </cc:Work>
    </rdf:RDF>
  </metadata>
  <g
     inkscape:label="Layer 1"
     inkscape:groupmode="layer"
     id="layer1"
     transform="translate(0,-602.36216)">
    <g
       id="g4165">
      <g
         id="g5319">
        <rect
           style="opacity:1;fill:#ffffff;fill-opacity:1;fill-rule:nonzero;stroke:none;stroke-width:4;stroke-miterlimit:4;stroke-dasharray:none;stroke-dashoffset:0;stroke-opacity:0"
           id="rect4849"
           width="1011.4286"
           height="457.14285"
           x="-5.7142944"
           y="598.79071" />
        <g
           style="color:#000000;font-style:normal;font-variant:normal;font-weight:normal;font-stretch:normal;font-size:60px;line-height:125%;font-family:'Black Ops One';-inkscape-font-specification:'Black Ops One';text-indent:0;text-align:center;text-decoration:none;text-decoration-line:none;letter-spacing:0px;word-spacing:0px;text-transform:none;direction:ltr;block-progression:tb;writing-mode:lr-tb;baseline-shift:baseline;text-anchor:middle;display:inline;overflow:visible;visibility:visible;fill:#000000;fill-opacity:1;fill-rule:nonzero;stroke:none;stroke-width:1px;stroke-linecap:butt;stroke-linejoin:miter;stroke-opacity:1;marker:none;enable-background:accumulate"
           id="text4684">
          <path
             d="m 269.74609,691.73773 -18.35937,0 -31.40625,-51.83594 18.24219,0 31.52343,51.83594 z m -49.76562,0 0,-46.91406 15.03906,24.64844 0,22.26562 -15.03906,0 z m 49.76562,-51.83594 0,46.91407 -15.03906,-24.76563 0,-22.14844 15.03906,0 z"
             style="font-size:80px"
             id="path5297" />
          <path
             d="m 295.29297,691.73773 -6.91406,0 -10.35157,-10.35156 0,-20.78125 10.35157,-10.35156 6.91406,0 0,41.48437 z m 2.73437,-16.64062 0,-7.22657 9.10157,0 0,-7.26562 -9.10157,0 0,-10.35156 14.64844,0 10.35156,10.35156 0,14.49219 -25,0 z m 0,16.64062 0,-9.6875 23.20313,0 0,4.49219 -5.15625,5.19531 -18.04688,0 z"
             style="font-size:80px"
             id="path5299" />
          <path
             d="m 325.80078,650.25336 16.48438,0 6.75781,21.60156 4.80469,-14.96094 6.21093,19.10156 -4.92187,15.78125 -0.0391,-0.0391 -14.41407,0 -14.88281,-41.48437 z m 28.28125,0 16.28906,0 13.35938,41.48437 -15.66406,0 -13.98438,-41.48437 z m 31.36719,38.90625 -7.26563,-22.34375 4.64844,-16.5625 16.17188,0 -13.55469,38.90625 z"
             style="font-size:80px"
             id="path5301" />
          <path
             d="m 457.91016,686.07367 -16.95313,0 3.59375,-10.27344 9.375,0 -13.86719,-35.89844 16.83594,0 20.66406,51.83594 -17.46093,0 -2.1875,-5.66406 z m -21.5625,5.66406 -16.67969,0 18.51562,-49.49219 7.65625,20.58594 -9.49218,28.90625 z"
             style="font-size:80px"
             id="path5303" />
          <path
             d="m 509.35547,660.60492 -7.34375,0 0,-4.53125 5.78125,-5.82031 10.46875,0 8.39844,9.6875 0,10.74218 -17.30469,0 0,-10.07812 z m -27.38281,31.13281 0,-41.48437 17.26562,0 0,41.48437 -17.26562,0 z"
             style="font-size:80px"
             id="path5305" />
          <path
             d="m 559.35547,660.60492 -7.34375,0 0,-4.53125 5.78125,-5.82031 10.46875,0 8.39844,9.6875 0,10.74218 -17.30469,0 0,-10.07812 z m -27.38281,31.13281 0,-41.48437 17.26562,0 0,41.48437 -17.26562,0 z"
             style="font-size:80px"
             id="path5307" />
          <path
             d="m 582.01172,650.25336 17.30469,0 0,41.48437 -17.30469,0 0,-41.48437 z m 0,-16.17188 17.30469,0 0,11.01563 -17.30469,0 0,-11.01563 z"
             style="font-size:80px"
             id="path5309" />
          <path
             d="m 602.83203,650.25336 17.14844,0 14.76562,41.48437 -16.40625,0 -15.50781,-41.48437 z m 33.67188,39.17968 -7.73438,-21.95312 5.58594,-17.22656 16.13281,0 -13.98437,39.17968 z"
             style="font-size:80px"
             id="path5311" />
          <path
             d="m 681.34766,691.73773 0,-31.13281 -24.57032,0 0,-5.15625 5.19532,-5.19531 25.89843,0 10.35157,10.35156 0,31.13281 -16.875,0 z m -2.73438,-24.14062 0,7.1875 -8.90625,0 0,7.26562 8.90625,0 0,4.57031 -5.15625,5.11719 -13.20312,0 -6.95313,-6.83594 0,-10.39062 6.95313,-6.91406 18.35937,0 z"
             style="font-size:80px"
             id="path5313" />
          <path
             d="m 731.03516,691.73773 -15.3125,0 -9.6875,-9.6875 0,-47.61719 17.26562,0 0,46.95313 7.73438,0 0,10.35156 z"
             style="font-size:80px"
             id="path5315" />
          <path
             d="m 744.43359,650.25336 6.91407,0 0,14.64843 19.6875,0 8.98437,9.0625 0,8.08594 -9.64844,9.6875 -7.61718,0 0,-15.66406 -18.67188,0 -8.98437,-8.63281 0,-7.89063 9.33593,-9.29687 z m 7.92969,33.86718 7.65625,0 0,7.61719 -17.77344,-0.0391 -7.1875,-8.51563 0,-3.32031 17.30469,0 0,4.25781 z m 10.39063,-26.25 -8.67188,0 0,-7.61718 18.35938,0 6.17187,6.17187 0,4.6875 -15.85937,0 0,-3.24219 z"
             style="font-size:80px"
             id="path5317" />
        </g>
        <flowRoot
           xml:space="preserve"
           id="flowRoot4136"
           style="fill:#ffff99;stroke:none;stroke-opacity:1;stroke-width:1px;stroke-linejoin:miter;stroke-linecap:butt;font-size:12.5px;font-style:normal;font-variant:normal;font-weight:500;font-stretch:normal;text-indent:0;text-align:center;text-decoration:none;line-height:125%;letter-spacing:0px;word-spacing:0px;text-transform:none;direction:ltr;block-progression:tb;writing-mode:lr-tb;text-anchor:middle;baseline-shift:baseline;color:#000000;fill-opacity:1;fill-rule:nonzero;marker:none;visibility:visible;display:inline;overflow:visible;enable-background:accumulate;font-family:TeX Gyre Chorus;-inkscape-font-specification:TeX Gyre Chorus Medium"><flowRegion
             id="flowRegion4138"><rect
               id="rect4140"
               width="84.852814"
               height="31.31473"
               x="568.71588"
               y="-10.629562" /></flowRegion><flowPara
             id="flowPara4142" /></flowRoot>        <flowRoot
           xml:space="preserve"
           id="flowRoot4144"
           style="fill:#ffff99;stroke:none;stroke-opacity:1;stroke-width:1px;stroke-linejoin:miter;stroke-linecap:butt;font-size:12.5px;font-style:normal;font-variant:normal;font-weight:500;font-stretch:normal;text-indent:0;text-align:center;text-decoration:none;line-height:125%;letter-spacing:0px;word-spacing:0px;text-transform:none;direction:ltr;block-progression:tb;writing-mode:lr-tb;text-anchor:middle;baseline-shift:baseline;color:#000000;fill-opacity:1;fill-rule:nonzero;marker:none;visibility:visible;display:inline;overflow:visible;enable-background:accumulate;font-family:TeX Gyre Chorus;-inkscape-font-specification:TeX Gyre Chorus Medium"><flowRegion
             id="flowRegion4146"><rect
               id="rect4148"
               width="33.335033"
               height="106.06602"
               x="753.57379"
               y="53.010048" /></flowRegion><flowPara
             id="flowPara4150" /></flowRoot>        <flowRoot
           xml:space="preserve"
           id="flowRoot4152"
           style="fill:#ffff99;stroke:none;stroke-opacity:1;stroke-width:1px;stroke-linejoin:miter;stroke-linecap:butt;font-size:12.5px;font-style:normal;font-variant:normal;font-weight:500;font-stretch:normal;text-indent:0;text-align:center;text-decoration:none;line-height:125%;letter-spacing:0px;word-spacing:0px;text-transform:none;direction:ltr;block-progression:tb;writing-mode:lr-tb;text-anchor:middle;baseline-shift:baseline;color:#000000;fill-opacity:1;fill-rule:nonzero;marker:none;visibility:visible;display:inline;overflow:visible;enable-background:accumulate;font-family:TeX Gyre Chorus;-inkscape-font-specification:TeX Gyre Chorus Medium"><flowRegion
             id="flowRegion4154"><rect
               id="rect4156"
               width="155.56349"
               height="26.263966"
               x="416.18286"
               y="219.68523" /></flowRegion><flowPara
             id="flowPara4158" /></flowRoot>      </g>
      <ellipse
         ry="144.45181"
         rx="272.23611"
         cy="873.36218"
         cx="500"
         id="path4159"
         style="opacity:1;fill:#0000ff;fill-opacity:1;stroke:none;stroke-width:8;stroke-miterlimit:4;stroke-dasharray:none;stroke-opacity:1" />
      <text
         sodipodi:linespacing="125%"
         id="text4161"
         y="933.02203"
         x="288.00922"
         style="font-style:normal;font-variant:normal;font-weight:normal;font-stretch:normal;font-size:27.5px;line-height:125%;font-family:Ubuntu;-inkscape-font-specification:Ubuntu;letter-spacing:0px;word-spacing:0px;fill:#ffffff;fill-opacity:1;stroke:none;stroke-width:1px;stroke-linecap:butt;stroke-linejoin:miter;stroke-opacity:1"
         xml:space="preserve"><tspan
           style="font-size:180px"
           y="933.02203"
           x="288.00922"
           id="tspan4163"
           sodipodi:role="line">New!</tspan></text>
    </g>
  </g>
</svg>
