<?xml version="1.0" encoding="UTF-8" standalone="no"?>
<!-- Created with Inkscape (http://www.inkscape.org/) -->

<svg
   xmlns:dc="http://purl.org/dc/elements/1.1/"
   xmlns:cc="http://creativecommons.org/ns#"
   xmlns:rdf="http://www.w3.org/1999/02/22-rdf-syntax-ns#"
   xmlns:svg="http://www.w3.org/2000/svg"
   xmlns="http://www.w3.org/2000/svg"
   xmlns:sodipodi="http://sodipodi.sourceforge.net/DTD/sodipodi-0.dtd"
   xmlns:inkscape="http://www.inkscape.org/namespaces/inkscape"
   width="1000"
   height="450"
   viewBox="0 0 1000 450.00001"
   id="svg2"
   version="1.1"
   inkscape:version="0.91 r13725"
   inkscape:export-filename="/home/tammy/image4846.png"
   inkscape:export-xdpi="90"
   inkscape:export-ydpi="90"
   sodipodi:docname="sale_items.svg">
  <defs
     id="defs4" />
  <sodipodi:namedview
     id="base"
     pagecolor="#ffffff"
     bordercolor="#666666"
     borderopacity="1.0"
     inkscape:pageopacity="0.0"
     inkscape:pageshadow="2"
     inkscape:zoom="0.98994949"
     inkscape:cx="125.90115"
     inkscape:cy="348.16197"
     inkscape:document-units="px"
     inkscape:current-layer="layer1"
     showgrid="false"
     units="px"
     inkscape:window-width="1920"
     inkscape:window-height="999"
     inkscape:window-x="1920"
     inkscape:window-y="29"
     inkscape:window-maximized="1" />
  <metadata
     id="metadata7">
    <rdf:RDF>
      <cc:Work
         rdf:about="">
        <dc:format>image/svg+xml</dc:format>
        <dc:type
           rdf:resource="http://purl.org/dc/dcmitype/StillImage" />
        <dc:title />
      </cc:Work>
    </rdf:RDF>
  </metadata>
  <g
     inkscape:label="Layer 1"
     inkscape:groupmode="layer"
     id="layer1"
     transform="translate(0,-602.36216)">
    <g
       id="g5365"
       inkscape:export-xdpi="90"
       inkscape:export-ydpi="90">
      <rect
         y="598.79071"
         x="-5.7142944"
         height="457.14285"
         width="1011.4286"
         id="rect4849"
         style="opacity:1;fill:#ffffff;fill-opacity:1;fill-rule:nonzero;stroke:none;stroke-width:4;stroke-miterlimit:4;stroke-dasharray:none;stroke-dashoffset:0;stroke-opacity:0" />
      <g
         id="text4684"
         style="color:#000000;font-style:normal;font-variant:normal;font-weight:normal;font-stretch:normal;font-size:60px;line-height:125%;font-family:'Black Ops One';-inkscape-font-specification:'Black Ops One';text-indent:0;text-align:center;text-decoration:none;text-decoration-line:none;letter-spacing:0px;word-spacing:0px;text-transform:none;direction:ltr;block-progression:tb;writing-mode:lr-tb;baseline-shift:baseline;text-anchor:middle;display:inline;overflow:visible;visibility:visible;fill:#000000;fill-opacity:1;fill-rule:nonzero;stroke:none;stroke-width:1px;stroke-linecap:butt;stroke-linejoin:miter;stroke-opacity:1;marker:none;enable-background:accumulate">
        <path
           id="path5347"
           style="font-size:80px"
           d="m 302.94922,691.73773 0,-19.41406 -22.42188,0 -10.39062,-10.39063 0,-11.67968 10.39062,-10.35157 5.85938,0 0,18.39844 23.82812,0 10.03907,10.39063 0,12.69531 -10.35157,10.35156 -6.95312,0 z m -13.82813,-42.5 0,-9.33594 20.74219,0 8.98438,9.02344 0,5.50781 -15.89844,0 0,-5.19531 -13.82813,0 z m -18.98437,26.95313 17.26562,0 0,6.17187 12.8125,0 0,9.375 -21.36718,0 -8.71094,-10.35156 0,-5.19531 z" />
        <path
           id="path5349"
           style="font-size:80px"
           d="m 355.41016,691.73773 0,-31.13281 -24.57032,0 0,-5.15625 5.19532,-5.19531 25.89843,0 10.35157,10.35156 0,31.13281 -16.875,0 z m -2.73438,-24.14062 0,7.1875 -8.90625,0 0,7.26562 8.90625,0 0,4.57031 -5.15625,5.11719 -13.20312,0 -6.95313,-6.83594 0,-10.39062 6.95313,-6.91406 18.35937,0 z" />
        <path
           id="path5351"
           style="font-size:80px"
           d="m 405.09766,691.73773 -15.3125,0 -9.6875,-9.6875 0,-47.61719 17.26562,0 0,46.95313 7.73438,0 0,10.35156 z" />
        <path
           id="path5353"
           style="font-size:80px"
           d="m 426.38672,691.73773 -6.91406,0 -10.35157,-10.35156 0,-20.78125 10.35157,-10.35156 6.91406,0 0,41.48437 z m 2.73437,-16.64062 0,-7.22657 9.10157,0 0,-7.26562 -9.10157,0 0,-10.35156 14.64844,0 10.35156,10.35156 0,14.49219 -25,0 z m 0,16.64062 0,-9.6875 23.20313,0 0,4.49219 -5.15625,5.19531 -18.04688,0 z" />
        <path
           id="path5355"
           style="font-size:80px"
           d="m 482.01172,680.68304 5.19531,0 0,-29.76562 -5.19531,0 0,-11.01563 27.65625,0 0,11.01563 -5.19531,0 0,29.76562 5.19531,0 0,11.05469 -27.65625,0 0,-11.05469 z" />
        <path
           id="path5357"
           style="font-size:80px"
           d="m 535.33203,681.38617 11.40625,0 0,10.35156 -18.28125,0 -10.39062,-10.35156 0,-20.78125 -3.4375,0 0,-10.35156 3.4375,0 0,-4.49219 17.26562,-5.85938 0,41.48438 z m 2.73438,-20.78125 0,-10.35156 9.29687,0 0,10.35156 -9.29687,0 z" />
        <path
           id="path5359"
           style="font-size:80px"
           d="m 570.29297,691.73773 -6.91406,0 -10.35157,-10.35156 0,-20.78125 10.35157,-10.35156 6.91406,0 0,41.48437 z m 2.73437,-16.64062 0,-7.22657 9.10157,0 0,-7.26562 -9.10157,0 0,-10.35156 14.64844,0 10.35156,10.35156 0,14.49219 -25,0 z m 0,16.64062 0,-9.6875 23.20313,0 0,4.49219 -5.15625,5.19531 -18.04688,0 z" />
        <path
           id="path5361"
           style="font-size:80px"
           d="m 605.99609,691.73773 0,-41.48437 17.30469,0 0,41.48437 -17.30469,0 z m 27.07032,-31.13281 -7.03125,0 0,-4.88281 5.42968,-5.46875 13.35938,0 5.54687,5.54687 0,35.9375 -17.30468,0 0,-31.13281 z m 27.07031,0 -7.03125,0 0,-4.80469 5.3125,-5.54687 10.54687,0 8.4375,8.51562 0,32.96875 -17.26562,0 0,-31.13281 z" />
        <path
           id="path5363"
           style="font-size:80px"
           d="m 694.27734,650.25336 6.91407,0 0,14.64843 19.6875,0 8.98437,9.0625 0,8.08594 -9.64844,9.6875 -7.61718,0 0,-15.66406 -18.67188,0 -8.98437,-8.63281 0,-7.89063 9.33593,-9.29687 z m 7.92969,33.86718 7.65625,0 0,7.61719 -17.77344,-0.0391 -7.1875,-8.51563 0,-3.32031 17.30469,0 0,4.25781 z m 10.39063,-26.25 -8.67188,0 0,-7.61718 18.35938,0 6.17187,6.17187 0,4.6875 -15.85937,0 0,-3.24219 z" />
      </g>
    </g>
  </g>
</svg>
