<?xml version="1.0" encoding="UTF-8" standalone="no"?>
<svg
   xmlns:dc="http://purl.org/dc/elements/1.1/"
   xmlns:cc="http://creativecommons.org/ns#"
   xmlns:rdf="http://www.w3.org/1999/02/22-rdf-syntax-ns#"
   xmlns:svg="http://www.w3.org/2000/svg"
   xmlns="http://www.w3.org/2000/svg"
   xmlns:xlink="http://www.w3.org/1999/xlink"
   xmlns:sodipodi="http://sodipodi.sourceforge.net/DTD/sodipodi-0.dtd"
   xmlns:inkscape="http://www.inkscape.org/namespaces/inkscape"
   width="64"
   height="64"
   viewBox="0 0 64 64"
   id="svg2"
   version="1.1"
   inkscape:version="0.91 r13725"
   sodipodi:docname="email_mouseover.svg">
  <metadata
     id="metadata24">
    <rdf:RDF>
      <cc:Work
         rdf:about="">
        <dc:format>image/svg+xml</dc:format>
        <dc:type
           rdf:resource="http://purl.org/dc/dcmitype/StillImage" />
        <dc:title></dc:title>
      </cc:Work>
    </rdf:RDF>
  </metadata>
  <defs
     id="defs22">
    <linearGradient
       inkscape:collect="always"
       id="linearGradient4162">
      <stop
         style="stop-color:#ed4e60;stop-opacity:1;"
         offset="0"
         id="stop4164" />
      <stop
         style="stop-color:#ed4e60;stop-opacity:0;"
         offset="1"
         id="stop4166" />
    </linearGradient>
    <radialGradient
       inkscape:collect="always"
       xlink:href="#linearGradient4162"
       id="radialGradient4168"
       cx="48.000092"
       cy="14.000109"
       fx="48.000092"
       fy="14.000109"
       r="15.999782"
       gradientTransform="matrix(1,0,0,0.87498521,0,1.7502207)"
       gradientUnits="userSpaceOnUse" />
  </defs>
  <sodipodi:namedview
     pagecolor="#ffffff"
     bordercolor="#666666"
     borderopacity="1"
     objecttolerance="10"
     gridtolerance="10"
     guidetolerance="10"
     inkscape:pageopacity="0"
     inkscape:pageshadow="2"
     inkscape:window-width="1920"
     inkscape:window-height="1043"
     id="namedview20"
     showgrid="false"
     inkscape:zoom="3.6875"
     inkscape:cx="32"
     inkscape:cy="32"
     inkscape:window-x="1920"
     inkscape:window-y="0"
     inkscape:window-maximized="1"
     inkscape:current-layer="svg2" />
  <g
     id="g4170">
    <path
       inkscape:connector-curvature="0"
       id="path4"
       d="M 4.7421878,64 59.257812,64 C 64,64 64,64 64,59.429688 L 64,20 32,0 -2e-7,20 l 0,39.429688 C -2e-7,64 -2e-7,64 4.7421878,64 Z"
       style="fill:#ed4e60;fill-opacity:1" />
    <path
       inkscape:connector-curvature="0"
       id="path6"
       d="m 4.742188,64 54.515624,0 C 64,64 64,64 64,59.429688 L 64,20 32,0 0,20 0,59.429688 C 0,64 0,64 4.742188,64 Z"
       style="fill:#000000;fill-opacity:0.10199998" />
    <path
       id="path8"
       d="M 8 8 L 8 56 L 56 56 L 56 8 Z "
       style="fill:#fff" />
    <g
       id="g10"
       style="fill:#8f0222;fill-opacity:1">
      <path
         style="fill:#8f0222;fill-opacity:1"
         inkscape:connector-curvature="0"
         id="path12"
         d="m 4,64 56,0 c 4,0 4,0 4,-4 L 64,24 0,60 c 0,4 0,4 4,4 z" />
      <path
         style="fill:#8f0222;fill-opacity:1"
         inkscape:connector-curvature="0"
         id="path14"
         d="M 60,64 4,64 C 0,64 0,64 0,60 L 0,24 64,60 c 0,4 0,4 -4,4 z" />
    </g>
    <path
       inkscape:connector-curvature="0"
       id="path16"
       d="M 59.257812,64 4.7421879,64 C 9.9999998e-8,64 9.9999998e-8,64 9.9999998e-8,59.507812 l 0,-35.507812 L 64,59.507812 C 64,64 64,64 59.257812,64 Z"
       style="fill:#ffffff;fill-opacity:0.10199998" />
    <path
       id="path18"
       d="M 56.910156 18.078125 C 59.898438 31 59.089844 29.402344 47.960938 23.949219 C 36.269531 29.882812 36.675781 30.386719 39.085938 17.957031 C 28.578125 9.199219 29.777344 9.992188 42.550781 8.378906 C 48.296875 -3.210938 47.8125 -2.390625 53.566406 8.457031 C 67.03125 9.953125 66.710938 9.4375 56.910156 18.078125 Z "
       style="fill:#8f0222;fill-rule:evenodd;fill-opacity:1" />
    <path
       style="fill:url(#radialGradient4168);fill-rule:evenodd;fill-opacity:1"
       d="M 56.910156 18.078125 C 59.898438 31 59.089844 29.402344 47.960938 23.949219 C 36.269531 29.882812 36.675781 30.386719 39.085938 17.957031 C 28.578125 9.199219 29.777344 9.992188 42.550781 8.378906 C 48.296875 -3.210938 47.8125 -2.390625 53.566406 8.457031 C 67.03125 9.953125 66.710938 9.4375 56.910156 18.078125 Z "
       id="path4152" />
  </g>
</svg>
