<?xml version="1.0" encoding="UTF-8" standalone="no"?>
<svg
   xmlns:dc="http://purl.org/dc/elements/1.1/"
   xmlns:cc="http://creativecommons.org/ns#"
   xmlns:rdf="http://www.w3.org/1999/02/22-rdf-syntax-ns#"
   xmlns:svg="http://www.w3.org/2000/svg"
   xmlns="http://www.w3.org/2000/svg"
   xmlns:sodipodi="http://sodipodi.sourceforge.net/DTD/sodipodi-0.dtd"
   xmlns:inkscape="http://www.inkscape.org/namespaces/inkscape"
   width="64"
   height="64"
   viewBox="0 0 64 64"
   id="svg2"
   version="1.1"
   inkscape:version="0.91 r13725"
   sodipodi:docname="email.svg">
  <metadata
     id="metadata22">
    <rdf:RDF>
      <cc:Work
         rdf:about="">
        <dc:format>image/svg+xml</dc:format>
        <dc:type
           rdf:resource="http://purl.org/dc/dcmitype/StillImage" />
        <dc:title></dc:title>
      </cc:Work>
    </rdf:RDF>
  </metadata>
  <defs
     id="defs20" />
  <sodipodi:namedview
     pagecolor="#ffffff"
     bordercolor="#666666"
     borderopacity="1"
     objecttolerance="10"
     gridtolerance="10"
     guidetolerance="10"
     inkscape:pageopacity="0"
     inkscape:pageshadow="2"
     inkscape:window-width="960"
     inkscape:window-height="1043"
     id="namedview18"
     showgrid="false"
     inkscape:zoom="3.6875"
     inkscape:cx="32"
     inkscape:cy="32"
     inkscape:window-x="2880"
     inkscape:window-y="0"
     inkscape:window-maximized="0"
     inkscape:current-layer="svg2" />
  <g
     id="g4169">
    <path
       inkscape:connector-curvature="0"
       id="path4"
       d="m 4.742188,64 54.515624,0 C 64,64 64,64 64,59.429688 L 64,20 32,-1.25e-7 0,20 0,59.429688 C 0,64 0,64 4.742188,64 Z"
       style="fill:#ed4e60;fill-opacity:1" />
    <path
       inkscape:connector-curvature="0"
       id="path6"
       d="m 4.742187,64 54.515624,0 c 4.74219,0 4.74219,0 4.74219,-4.570312 L 64.000001,20 31.999997,0 -1e-6,20 l 0,39.429688 C -1e-6,64 -1e-6,64 4.742187,64 Z"
       style="fill:#000000;fill-opacity:0.10199998" />
    <path
       inkscape:connector-curvature="0"
       id="path8"
       d="M 8,8 8,56 56,56 56,8 Z"
       style="fill:#ffffff" />
    <g
       id="g10"
       style="fill:#8f0222;fill-opacity:1">
      <path
         style="fill:#8f0222;fill-opacity:1"
         inkscape:connector-curvature="0"
         id="path12"
         d="m 4,64 56,0 c 4,0 4,0 4,-4 L 64,24 0,60 c 0,4 0,4 4,4 z" />
      <path
         style="fill:#8f0222;fill-opacity:1"
         inkscape:connector-curvature="0"
         id="path14"
         d="M 60,64 4,64 C 0,64 0,64 0,60 L 0,24 64,60 c 0,4 0,4 -4,4 z" />
    </g>
    <path
       inkscape:connector-curvature="0"
       id="path16"
       d="M 59.257805,64 4.742185,64 C 5e-6,64 5e-6,64 5e-6,59.507812 L 5e-6,24 63.999995,59.507812 C 63.999995,64 63.999995,64 59.257805,64 Z"
       style="fill:#ffffff;fill-opacity:0.10199998" />
  </g>
</svg>
