<?xml version="1.0" encoding="UTF-8" standalone="no"?>
<!-- Created with Inkscape (http://www.inkscape.org/) -->

<svg
   xmlns:dc="http://purl.org/dc/elements/1.1/"
   xmlns:cc="http://creativecommons.org/ns#"
   xmlns:rdf="http://www.w3.org/1999/02/22-rdf-syntax-ns#"
   xmlns:svg="http://www.w3.org/2000/svg"
   xmlns="http://www.w3.org/2000/svg"
   xmlns:sodipodi="http://sodipodi.sourceforge.net/DTD/sodipodi-0.dtd"
   xmlns:inkscape="http://www.inkscape.org/namespaces/inkscape"
   width="30cm"
   height="30cm"
   viewBox="0 0 1062.9921 1062.9921"
   id="svg4217"
   version="1.1"
   inkscape:version="0.91 r13725"
   sodipodi:docname="tr_round.svg">
  <defs
     id="defs4219" />
  <sodipodi:namedview
     id="base"
     pagecolor="#ffffff"
     bordercolor="#666666"
     borderopacity="1.0"
     inkscape:pageopacity="0.0"
     inkscape:pageshadow="2"
     inkscape:zoom="0.35"
     inkscape:cx="555"
     inkscape:cy="482.85714"
     inkscape:document-units="px"
     inkscape:current-layer="layer1"
     showgrid="false"
     units="cm"
     inkscape:window-width="960"
     inkscape:window-height="1029"
     inkscape:window-x="2880"
     inkscape:window-y="25"
     inkscape:window-maximized="0" />
  <metadata
     id="metadata4222">
    <rdf:RDF>
      <cc:Work
         rdf:about="">
        <dc:format>image/svg+xml</dc:format>
        <dc:type
           rdf:resource="http://purl.org/dc/dcmitype/StillImage" />
        <dc:title></dc:title>
      </cc:Work>
    </rdf:RDF>
  </metadata>
  <g
     inkscape:label="Layer 1"
     inkscape:groupmode="layer"
     id="layer1"
     transform="translate(0,10.629867)">
    <path
       style="opacity:1;fill:#000000;fill-opacity:1;stroke:none;stroke-width:5.5;stroke-linecap:round;stroke-linejoin:round;stroke-miterlimit:4;stroke-dasharray:none;stroke-opacity:1"
       d="m 191.09951,20.866206 c -88.4207,0 -159.603401,71.1829 -159.603401,159.603514 l 0,680.79297 c 0,88.4207 71.182701,159.60351 159.603401,159.60351 l 680.793,0 c 88.4207,0 159.60349,-71.18281 159.60349,-159.60351 l 0,-680.79297 c 0,-88.420614 -71.18279,-159.603514 -159.60349,-159.603514 l -680.793,0 z m 18.5684,238.312504 381.56247,0 0,109.7813 -19.8125,0 c -3.96841,-37.0347 -12.1241,-60.6091 -24.46875,-70.75 -11.90446,-10.581 -36.83349,-15.8746 -74.75,-15.875 l -39,0 0,372.99998 c -2.4e-4,13.6677 1.07654,22.4695 3.28125,26.4375 2.20422,4.8498 8.1751,8.6046 17.875,11.25 10.14028,2.6454 19.61935,3.9687 28.4375,3.9687 9.25846,0 16.95219,0.2154 23.125,0.6563 l 0,19.1875 -210.93749,0 0,-19.1875 c 6.1724,-0.4409 13.6508,-0.6563 22.46874,-0.6563 9.25863,0 18.73771,-1.3233 28.4375,-3.9687 10.14039,-2.6454 16.32662,-6.4002 18.53125,-11.25 2.20429,-3.968 3.28108,-12.7698 3.28125,-26.4375 l 0,-372.99998 -39,0 c -37.91694,4e-4 -63.06134,5.294 -75.40624,15.875 -11.90418,10.1409 -19.84448,33.7153 -23.81248,70.75 l -19.8125,0 0,-109.7813 z m 308.68747,138.9375 162.21875,0 c 87.03127,4e-4 130.53098,31.671 130.53128,95 -3e-4,25.9246 -8.4956,47.594 -25.5313,65 -16.66586,17.0362 -38.33525,27.967 -64.99998,32.7813 l 0,1.0937 c 16.29503,4.074 29.63003,10.1963 40,18.3438 10.36944,8.1478 17.58218,17.2195 21.65628,27.2187 4.4439,9.99948 7.7776,20.73808 10,32.21878 2.2218,11.4808 4.0808,22.5725 5.5625,33.3125 1.8514,10.7401 4.2556,20.5805 7.2187,29.4687 3.3328,8.8884 8.8787,16.4542 16.6563,22.75 7.7769,5.9256 18.3234,9.6437 31.6562,11.125 l 0,16.125 -45,0 c -15.9252,0 -28.8759,-3.3337 -38.87498,-10 -9.62928,-6.6662 -16.29678,-15.1927 -20,-25.5625 -3.70372,-10.74 -6.49226,-22.6003 -8.34375,-35.5625 -1.85198,-12.962 -3.87191,-25.9127 -6.09375,-38.875 -1.85197,-12.962 -4.99357,-24.6301 -9.4375,-34.99998 -4.07404,-10.7399 -11.4789,-19.4586 -22.21875,-26.125 -10.74026,-6.666 -24.65172,-9.9998 -41.6875,-10 l -38.3125,0 0,129.43748 c -1.2e-4,12.2215 1.66675,20.9402 5,26.125 3.70334,4.8146 9.24917,7.4109 16.65625,7.7813 7.40679,0.3703 16.86283,0.9155 28.34375,1.6562 l 0,16.125 -155,0 0,-16.125 c 11.48072,-0.7407 20.93677,-1.2859 28.34375,-1.6562 7.40688,-0.3704 12.76057,-2.9667 16.09375,-7.7813 3.7034,-5.1848 5.56243,-13.9035 5.5625,-26.125 l 0,-281.09368 c -7e-5,-12.2211 -1.8591,-20.7164 -5.5625,-25.5313 -3.33318,-5.1845 -8.68687,-7.973 -16.09375,-8.3437 -7.40698,-0.37 -16.86303,-0.9152 -28.34375,-1.6563 l 0,-16.125 z m 135,19.4375 c -3.33327,4e-4 -6.31397,0.1925 -8.90625,0.5625 -2.59257,4e-4 -4.99681,0.3847 -7.21875,1.125 -2.22222,0.7411 -4.24215,1.8315 -6.09375,3.3125 -1.85187,1.1114 -3.35784,2.5861 -4.46875,4.4375 -1.11117,1.8521 -2.00943,4.4485 -2.75,7.7813 -0.37047,2.9631 -0.56262,6.489 -0.5625,10.5625 l 0,136.6562 43.875,0 c 56.29251,2e-4 84.43725,-27.9524 84.4375,-83.875 -2.5e-4,-27.035 -7.75817,-47.2297 -23.3125,-60.5625 -15.55479,-13.3321 -37.03202,-19.9996 -64.4375,-20 -3.70363,4e-4 -7.22954,4e-4 -10.5625,0 z"
       id="rect4134"
       inkscape:connector-curvature="0" />
  </g>
</svg>
