<?xml version="1.0" encoding="UTF-8" standalone="no"?>
<!-- Created with Inkscape (http://www.inkscape.org/) -->

<svg
   xmlns:dc="http://purl.org/dc/elements/1.1/"
   xmlns:cc="http://creativecommons.org/ns#"
   xmlns:rdf="http://www.w3.org/1999/02/22-rdf-syntax-ns#"
   xmlns:svg="http://www.w3.org/2000/svg"
   xmlns="http://www.w3.org/2000/svg"
   xmlns:sodipodi="http://sodipodi.sourceforge.net/DTD/sodipodi-0.dtd"
   xmlns:inkscape="http://www.inkscape.org/namespaces/inkscape"
   width="30cm"
   height="30cm"
   viewBox="0 0 1062.9921 1062.9921"
   id="svg4217"
   version="1.1"
   inkscape:version="0.91 r13725"
   sodipodi:docname="tr_square.svg">
  <defs
     id="defs4219" />
  <sodipodi:namedview
     id="base"
     pagecolor="#ffffff"
     bordercolor="#666666"
     borderopacity="1.0"
     inkscape:pageopacity="0.0"
     inkscape:pageshadow="2"
     inkscape:zoom="0.35"
     inkscape:cx="555"
     inkscape:cy="482.85714"
     inkscape:document-units="px"
     inkscape:current-layer="layer1"
     showgrid="false"
     units="cm"
     inkscape:window-width="960"
     inkscape:window-height="1029"
     inkscape:window-x="2880"
     inkscape:window-y="25"
     inkscape:window-maximized="0" />
  <metadata
     id="metadata4222">
    <rdf:RDF>
      <cc:Work
         rdf:about="">
        <dc:format>image/svg+xml</dc:format>
        <dc:type
           rdf:resource="http://purl.org/dc/dcmitype/StillImage" />
        <dc:title></dc:title>
      </cc:Work>
    </rdf:RDF>
  </metadata>
  <g
     inkscape:label="Layer 1"
     inkscape:groupmode="layer"
     id="layer1"
     transform="translate(0,10.629867)">
    <path
       style="opacity:1;fill:#000000;fill-opacity:1;stroke:none;stroke-width:5.5;stroke-linecap:round;stroke-linejoin:round;stroke-miterlimit:4;stroke-dasharray:none;stroke-opacity:1"
       d="m 31.496063,20.866221 0,999.999979 1000.000037,0 0,-999.999979 -1000.000037,0 z m 178.171897,238.312489 381.56253,0 0,109.7813 -19.8125,0 c -3.9684,-37.0346 -12.12415,-60.609 -24.46875,-70.75 -11.9045,-10.581 -36.8335,-15.8746 -74.75,-15.875 l -39,0 0,373 c -2e-4,13.6678 1.07655,22.4695 3.28125,26.4375 2.2043,4.8499 8.1751,8.6047 17.875,11.25 10.1403,2.6454 19.6194,3.9687 28.4375,3.9687 9.2585,0 16.9522,0.2155 23.125,0.6563 l 0,19.1875 -210.93753,0 0,-19.1875 c 6.1724,-0.4408 13.6508,-0.6563 22.4688,-0.6563 9.2586,0 18.73768,-1.3233 28.43748,-3.9687 10.1404,-2.6453 16.32665,-6.4001 18.53125,-11.25 2.2043,-3.968 3.28105,-12.7697 3.28125,-26.4375 l 0,-373 -38.99998,0 c -37.9169,4e-4 -63.0613,5.294 -75.4063,15.875 -11.9041,10.141 -19.8444,33.7154 -23.8125,70.75 l -19.8125,0 0,-109.7813 z m 308.68753,138.9375 162.21875,0 c 87.03132,4e-4 130.53095,31.671 130.53125,95 -3e-4,25.9245 -8.49555,47.5939 -25.53125,65 -16.6659,17.0361 -38.3353,27.967 -65,32.7813 l 0,1.0937 c 16.295,4.074 29.63,10.1964 40,18.3438 10.3694,8.1478 17.58215,17.2195 21.65625,27.2187 4.4439,9.9995 7.7777,20.7382 10,32.2188 2.2218,11.4809 4.0809,22.5726 5.5625,33.3125 1.8515,10.7402 4.25565,20.5804 7.21875,29.4687 3.3328,8.8883 8.87875,16.4541 16.65625,22.75 7.777,5.9255 18.32345,9.6436 31.65625,11.125 l 0,16.125 -45,0 c -15.9252,0 -28.8759,-3.3338 -38.875,-10 -9.6293,-6.6663 -16.2968,-15.1928 -20,-25.5625 -3.7037,-10.74 -6.49225,-22.6003 -8.34375,-35.5625 -1.8519,-12.9621 -3.87195,-25.9128 -6.09375,-38.875 -1.852,-12.962 -4.9936,-24.6302 -9.4375,-35 -4.074,-10.7399 -11.47885,-19.4586 -22.21875,-26.125 -10.7402,-6.6661 -24.6517,-9.9998 -41.6875,-10 l -38.3125,0 0,129.4375 c -10e-5,12.2215 1.6668,20.9401 5,26.125 3.7034,4.8145 9.24915,7.411 16.65625,7.7813 7.4068,0.3704 16.86285,0.9155 28.34375,1.6562 l 0,16.125 -155,0 0,-16.125 c 11.4808,-0.7407 20.93675,-1.2858 28.34375,-1.6562 7.4069,-0.3703 12.76065,-2.9668 16.09375,-7.7813 3.7034,-5.1849 5.5625,-13.9035 5.5625,-26.125 l 0,-281.0937 c 0,-12.2211 -1.8591,-20.7165 -5.5625,-25.5313 -3.3331,-5.1845 -8.68685,-7.973 -16.09375,-8.3437 -7.407,-0.3699 -16.86295,-0.9153 -28.34375,-1.6563 l 0,-16.125 z m 135,19.4375 c -3.3332,3e-4 -6.31395,0.1925 -8.90625,0.5625 -2.5926,3e-4 -4.99675,0.3847 -7.21875,1.125 -2.2222,0.741 -4.24215,1.8315 -6.09375,3.3125 -1.8519,1.1114 -3.35775,2.5861 -4.46875,4.4375 -1.1111,1.8521 -2.0094,4.4486 -2.75,7.7813 -0.3704,2.9632 -0.5626,6.4891 -0.5625,10.5625 l 0,136.6562 43.875,0 c 56.29262,2e-4 84.4373,-27.9524 84.4375,-83.875 -2e-4,-27.035 -7.7581,-47.2297 -23.3125,-60.5625 -15.55472,-13.3321 -37.032,-19.9997 -64.4375,-20 -3.7036,3e-4 -7.2295,3e-4 -10.5625,0 z"
       id="rect4179"
       inkscape:connector-curvature="0" />
  </g>
</svg>
