<?xml version="1.0" encoding="UTF-8" standalone="no"?>
<!-- Created with Inkscape (http://www.inkscape.org/) -->

<svg
   xmlns:dc="http://purl.org/dc/elements/1.1/"
   xmlns:cc="http://creativecommons.org/ns#"
   xmlns:rdf="http://www.w3.org/1999/02/22-rdf-syntax-ns#"
   xmlns:svg="http://www.w3.org/2000/svg"
   xmlns="http://www.w3.org/2000/svg"
   xmlns:sodipodi="http://sodipodi.sourceforge.net/DTD/sodipodi-0.dtd"
   xmlns:inkscape="http://www.inkscape.org/namespaces/inkscape"
   width="30cm"
   height="30cm"
   viewBox="0 0 1062.9921 1062.9921"
   id="svg4217"
   version="1.1"
   inkscape:version="0.91 r13725"
   sodipodi:docname="tr_sphere.svg">
  <defs
     id="defs4219" />
  <sodipodi:namedview
     id="base"
     pagecolor="#ffffff"
     bordercolor="#666666"
     borderopacity="1.0"
     inkscape:pageopacity="0.0"
     inkscape:pageshadow="2"
     inkscape:zoom="0.35"
     inkscape:cx="555"
     inkscape:cy="482.85714"
     inkscape:document-units="px"
     inkscape:current-layer="layer1"
     showgrid="false"
     units="cm"
     inkscape:window-width="960"
     inkscape:window-height="1029"
     inkscape:window-x="2880"
     inkscape:window-y="25"
     inkscape:window-maximized="0" />
  <metadata
     id="metadata4222">
    <rdf:RDF>
      <cc:Work
         rdf:about="">
        <dc:format>image/svg+xml</dc:format>
        <dc:type
           rdf:resource="http://purl.org/dc/dcmitype/StillImage" />
        <dc:title></dc:title>
      </cc:Work>
    </rdf:RDF>
  </metadata>
  <g
     inkscape:label="Layer 1"
     inkscape:groupmode="layer"
     id="layer1"
     transform="translate(0,10.629867)">
    <path
       style="opacity:1;fill:#000000;fill-opacity:1;stroke:none;stroke-width:5.5;stroke-linecap:round;stroke-linejoin:round;stroke-miterlimit:4;stroke-dasharray:none;stroke-opacity:1"
       d="m 531.49607,20.866195 c -277,0 -500.000002,223.000005 -500.000002,500.000005 0,277 223.000002,500 500.000002,500 277,0 500.00003,-223 500.00003,-500 0,-277 -223.00003,-500.000005 -500.00003,-500.000005 z m -321.8281,238.312505 381.5625,0 0,109.7812 -19.8125,0 c -3.9684,-37.0346 -12.1241,-60.609 -24.4688,-70.75 -11.9044,-10.581 -36.8335,-15.8745 -74.75,-15.875 l -39,0 0,373 c -2e-4,13.6678 1.0766,22.4695 3.2813,26.4375 2.2042,4.8499 8.1751,8.6047 17.875,11.25 10.1403,2.6454 19.6193,3.9688 28.4375,3.9688 9.2584,0 16.9522,0.2154 23.125,0.6562 l 0,19.1875 -210.9375,0 0,-19.1875 c 6.1724,-0.4408 13.6507,-0.6562 22.4687,-0.6562 9.2587,0 18.7377,-1.3234 28.4375,-3.9688 10.1404,-2.6453 16.3266,-6.4001 18.5313,-11.25 2.2043,-3.968 3.2811,-12.7697 3.2812,-26.4375 l 0,-373 -39,0 c -37.9169,5e-4 -63.0613,5.294 -75.4062,15.875 -11.9042,10.141 -19.8445,33.7154 -23.8125,70.75 l -19.8125,0 0,-109.7812 z m 308.6875,138.9375 162.2187,0 c 87.0313,4e-4 130.531,31.671 130.5313,95 -3e-4,25.9245 -8.4956,47.5939 -25.5313,65 -16.6659,17.0361 -38.3352,27.9669 -65,32.7812 l 0,1.0938 c 16.2951,4.074 29.6301,10.1963 40,18.3437 10.3695,8.1478 17.5822,17.2196 21.6563,27.2188 4.4439,9.9995 7.7776,20.7381 10,32.2187 2.2218,11.4809 4.0808,22.5726 5.5625,33.3125 1.8514,10.7402 4.2556,20.5805 7.2187,29.4688 3.3328,8.8883 8.8787,16.4541 16.6563,22.75 7.7769,5.9255 18.3234,9.6436 31.6562,11.125 l 0,16.125 -45,0 c -15.9252,0 -28.8759,-3.3338 -38.875,-10 -9.6293,-6.6663 -16.2968,-15.1928 -20,-25.5625 -3.7037,-10.74 -6.4922,-22.6003 -8.3437,-35.5625 -1.852,-12.9621 -3.8719,-25.9128 -6.0938,-38.875 -1.8519,-12.962 -4.9935,-24.6302 -9.4375,-35 -4.074,-10.7399 -11.4789,-19.4586 -22.2187,-26.125 -10.7403,-6.6661 -24.6517,-9.9998 -41.6875,-10 l -38.3125,0 0,129.4375 c -10e-5,12.2215 1.6667,20.9401 5,26.125 3.7033,4.8145 9.2491,7.4109 16.6562,7.7812 7.4068,0.3704 16.8629,0.9156 28.3438,1.6563 l 0,16.125 -155,0 0,-16.125 c 11.4807,-0.7407 20.9367,-1.2859 28.3437,-1.6563 7.4069,-0.3703 12.7606,-2.9667 16.0938,-7.7812 3.7034,-5.1849 5.5624,-13.9035 5.5625,-26.125 l 0,-281.0938 c -10e-5,-12.2211 -1.8591,-20.7164 -5.5625,-25.5312 -3.3332,-5.1845 -8.6869,-7.9731 -16.0938,-8.3438 -7.407,-0.37 -16.863,-0.9152 -28.3437,-1.6562 l 0,-16.125 z m 135,19.4375 c -3.3333,3e-4 -6.314,0.1925 -8.9063,0.5625 -2.5925,3e-4 -4.9968,0.3846 -7.2187,1.125 -2.2222,0.741 -4.2422,1.8314 -6.0938,3.3125 -1.8518,1.1114 -3.3578,2.5861 -4.4687,4.4375 -1.1112,1.8521 -2.0095,4.4485 -2.75,7.7812 -0.3705,2.9631 -0.5626,6.489 -0.5625,10.5625 l 0,136.6563 43.875,0 c 56.2925,2e-4 84.4372,-27.9524 84.4375,-83.875 -3e-4,-27.035 -7.7582,-47.2297 -23.3125,-60.5625 -15.5548,-13.3322 -37.032,-19.9997 -64.4375,-20 -3.7037,3e-4 -7.2296,3e-4 -10.5625,0 z"
       id="rect4166"
       inkscape:connector-curvature="0" />
  </g>
</svg>
