<?xml version="1.0" encoding="UTF-8" standalone="no"?>
<!-- Created with Inkscape (http://www.inkscape.org/) -->

<svg
   xmlns:dc="http://purl.org/dc/elements/1.1/"
   xmlns:cc="http://creativecommons.org/ns#"
   xmlns:rdf="http://www.w3.org/1999/02/22-rdf-syntax-ns#"
   xmlns:svg="http://www.w3.org/2000/svg"
   xmlns="http://www.w3.org/2000/svg"
   xmlns:sodipodi="http://sodipodi.sourceforge.net/DTD/sodipodi-0.dtd"
   xmlns:inkscape="http://www.inkscape.org/namespaces/inkscape"
   width="1066.6666"
   height="480"
   viewBox="0 0 1000 450.00001"
   id="svg2"
   version="1.1"
   inkscape:version="0.92.1 r"
   inkscape:export-filename="/home/z/Documents/Projects/customgun.com/app/assets/images/theme/store_darkly/sale_items.png"
   inkscape:export-xdpi="57.599998"
   inkscape:export-ydpi="57.599998"
   sodipodi:docname="sale_items.svg">
  <defs
     id="defs4" />
  <sodipodi:namedview
     id="base"
     pagecolor="#ffffff"
     bordercolor="#666666"
     borderopacity="1.0"
     inkscape:pageopacity="0.0"
     inkscape:pageshadow="2"
     inkscape:zoom="0.98994949"
     inkscape:cx="430.96722"
     inkscape:cy="99.664443"
     inkscape:document-units="px"
     inkscape:current-layer="layer1"
     showgrid="false"
     units="px"
     inkscape:window-width="960"
     inkscape:window-height="1016"
     inkscape:window-x="4800"
     inkscape:window-y="30"
     inkscape:window-maximized="0" />
  <metadata
     id="metadata7">
    <rdf:RDF>
      <cc:Work
         rdf:about="">
        <dc:format>image/svg+xml</dc:format>
        <dc:type
           rdf:resource="http://purl.org/dc/dcmitype/StillImage" />
        <dc:title />
      </cc:Work>
    </rdf:RDF>
  </metadata>
  <g
     inkscape:label="Layer 1"
     inkscape:groupmode="layer"
     id="layer1"
     transform="translate(0,-602.36216)">
    <g
       id="g39">
      <g
         inkscape:export-ydpi="90"
         inkscape:export-xdpi="90"
         id="g5365">
        <rect
           style="opacity:1;fill:#ffffff;fill-opacity:1;fill-rule:nonzero;stroke:none;stroke-width:4;stroke-miterlimit:4;stroke-dasharray:none;stroke-dashoffset:0;stroke-opacity:0"
           id="rect4849"
           width="1011.4286"
           height="457.14285"
           x="-5.7142944"
           y="598.79071" />
        <g
           style="color:#000000;font-style:normal;font-variant:normal;font-weight:normal;font-stretch:normal;font-size:60px;line-height:125%;font-family:'Black Ops One';-inkscape-font-specification:'Black Ops One';text-indent:0;text-align:center;text-decoration:none;text-decoration-line:none;letter-spacing:0px;word-spacing:0px;text-transform:none;writing-mode:lr-tb;direction:ltr;baseline-shift:baseline;text-anchor:middle;display:inline;overflow:visible;visibility:visible;fill:#000000;fill-opacity:1;fill-rule:nonzero;stroke:none;stroke-width:1px;stroke-linecap:butt;stroke-linejoin:miter;stroke-opacity:1;marker:none;enable-background:accumulate"
           id="text4684">
          <path
             inkscape:connector-curvature="0"
             d="m 302.94922,691.73773 v -19.41406 h -22.42188 l -10.39062,-10.39063 v -11.67968 l 10.39062,-10.35157 h 5.85938 v 18.39844 h 23.82812 l 10.03907,10.39063 v 12.69531 l -10.35157,10.35156 z m -13.82813,-42.5 v -9.33594 h 20.74219 l 8.98438,9.02344 v 5.50781 h -15.89844 v -5.19531 z m -18.98437,26.95313 h 17.26562 v 6.17187 h 12.8125 v 9.375 h -21.36718 l -8.71094,-10.35156 z"
             style="font-size:80px"
             id="path5347" />
          <path
             inkscape:connector-curvature="0"
             d="m 355.41016,691.73773 v -31.13281 h -24.57032 v -5.15625 l 5.19532,-5.19531 h 25.89843 l 10.35157,10.35156 v 31.13281 z m -2.73438,-24.14062 v 7.1875 h -8.90625 v 7.26562 h 8.90625 v 4.57031 l -5.15625,5.11719 h -13.20312 l -6.95313,-6.83594 v -10.39062 l 6.95313,-6.91406 z"
             style="font-size:80px"
             id="path5349" />
          <path
             inkscape:connector-curvature="0"
             d="m 405.09766,691.73773 h -15.3125 l -9.6875,-9.6875 v -47.61719 h 17.26562 v 46.95313 h 7.73438 z"
             style="font-size:80px"
             id="path5351" />
          <path
             inkscape:connector-curvature="0"
             d="m 426.38672,691.73773 h -6.91406 l -10.35157,-10.35156 v -20.78125 l 10.35157,-10.35156 h 6.91406 z m 2.73437,-16.64062 v -7.22657 h 9.10157 v -7.26562 h -9.10157 v -10.35156 h 14.64844 l 10.35156,10.35156 v 14.49219 z m 0,16.64062 v -9.6875 h 23.20313 v 4.49219 l -5.15625,5.19531 z"
             style="font-size:80px"
             id="path5353" />
          <path
             inkscape:connector-curvature="0"
             d="m 482.01172,680.68304 h 5.19531 v -29.76562 h -5.19531 v -11.01563 h 27.65625 v 11.01563 h -5.19531 v 29.76562 h 5.19531 v 11.05469 h -27.65625 z"
             style="font-size:80px"
             id="path5355" />
          <path
             inkscape:connector-curvature="0"
             d="m 535.33203,681.38617 h 11.40625 v 10.35156 h -18.28125 l -10.39062,-10.35156 v -20.78125 h -3.4375 v -10.35156 h 3.4375 v -4.49219 l 17.26562,-5.85938 z m 2.73438,-20.78125 v -10.35156 h 9.29687 v 10.35156 z"
             style="font-size:80px"
             id="path5357" />
          <path
             inkscape:connector-curvature="0"
             d="m 570.29297,691.73773 h -6.91406 l -10.35157,-10.35156 v -20.78125 l 10.35157,-10.35156 h 6.91406 z m 2.73437,-16.64062 v -7.22657 h 9.10157 v -7.26562 h -9.10157 v -10.35156 h 14.64844 l 10.35156,10.35156 v 14.49219 z m 0,16.64062 v -9.6875 h 23.20313 v 4.49219 l -5.15625,5.19531 z"
             style="font-size:80px"
             id="path5359" />
          <path
             inkscape:connector-curvature="0"
             d="m 605.99609,691.73773 v -41.48437 h 17.30469 v 41.48437 z m 27.07032,-31.13281 h -7.03125 v -4.88281 l 5.42968,-5.46875 h 13.35938 l 5.54687,5.54687 v 35.9375 h -17.30468 z m 27.07031,0 h -7.03125 v -4.80469 l 5.3125,-5.54687 h 10.54687 l 8.4375,8.51562 v 32.96875 h -17.26562 z"
             style="font-size:80px"
             id="path5361" />
          <path
             inkscape:connector-curvature="0"
             d="m 694.27734,650.25336 h 6.91407 v 14.64843 h 19.6875 l 8.98437,9.0625 v 8.08594 l -9.64844,9.6875 h -7.61718 v -15.66406 h -18.67188 l -8.98437,-8.63281 v -7.89063 z m 7.92969,33.86718 h 7.65625 v 7.61719 l -17.77344,-0.0391 -7.1875,-8.51563 v -3.32031 h 17.30469 v 4.25781 z m 10.39063,-26.25 h -8.67188 v -7.61718 h 18.35938 l 6.17187,6.17187 v 4.6875 h -15.85937 z"
             style="font-size:80px"
             id="path5363" />
        </g>
      </g>
      <path
         transform="matrix(2.6656838,0,0,1,-832.8419,0)"
         inkscape:transform-center-y="-0.0077098624"
         inkscape:transform-center-x="-0.00096144815"
         d="m 618.04298,975.02846 -71.43826,-47.42987 18.18921,83.79841 -47.84972,-71.15774 -15.26363,84.38034 -16.97649,-84.05247 -46.3927,72.11607 16.48124,-84.15092 -70.45891,48.87288 47.42987,-71.43825 -83.79839,18.1892 71.15772,-47.84972 -84.38032,-15.26362 84.05245,-16.9765 -72.11611,-46.3927 84.15097,16.48124 -48.87289,-70.4589 71.43826,47.42986 -18.18921,-83.79839 47.84972,71.15772 15.26363,-84.38032 16.97649,84.05246 46.3927,-72.11612 -16.48124,84.15097 70.45891,-48.87289 -47.42987,71.43826 83.79839,-18.1892 -71.15772,47.84972 84.38032,15.26362 -84.05245,16.9765 72.11611,46.39269 -84.15097,-16.48124 z"
         inkscape:randomized="0"
         inkscape:rounded="0"
         inkscape:flatsided="false"
         sodipodi:arg2="0.97157856"
         sodipodi:arg1="0.77522902"
         sodipodi:r2="82.632973"
         sodipodi:r1="165.26595"
         sodipodi:cy="859.36218"
         sodipodi:cx="500"
         sodipodi:sides="16"
         id="path3345"
         style="opacity:1;fill:#0000cd;fill-opacity:1;stroke:none;stroke-width:5.5;stroke-linecap:round;stroke-linejoin:round;stroke-miterlimit:4;stroke-dasharray:none;stroke-opacity:1"
         sodipodi:type="star" />
      <text
         id="text3347"
         y="901.02216"
         x="365.06421"
         style="font-style:normal;font-variant:normal;font-weight:normal;font-stretch:normal;line-height:0%;font-family:Ubuntu;-inkscape-font-specification:Ubuntu;letter-spacing:0px;word-spacing:0px;fill:#ffffff;fill-opacity:1;stroke:none;stroke-width:1px;stroke-linecap:butt;stroke-linejoin:miter;stroke-opacity:1"
         xml:space="preserve"><tspan
           style="font-style:italic;font-variant:normal;font-weight:500;font-stretch:normal;font-size:120px;line-height:1.25;font-family:Ubuntu;-inkscape-font-specification:'Ubuntu Medium Italic'"
           y="901.02216"
           x="365.06421"
           id="tspan3349"
           sodipodi:role="line">$$$$</tspan></text>
      <rect
         transform="rotate(-2.6592674)"
         y="879.06451"
         x="287.67883"
         height="13.131984"
         width="343.45187"
         id="rect3351"
         style="opacity:1;fill:#f5f5f5;fill-opacity:1;stroke:none;stroke-width:5.5;stroke-linecap:round;stroke-linejoin:round;stroke-miterlimit:4;stroke-dasharray:none;stroke-opacity:1" />
    </g>
  </g>
</svg>
