<?xml version="1.0" encoding="UTF-8" standalone="no"?>
<!-- Created with Inkscape (http://www.inkscape.org/) -->

<svg
   xmlns:dc="http://purl.org/dc/elements/1.1/"
   xmlns:cc="http://creativecommons.org/ns#"
   xmlns:rdf="http://www.w3.org/1999/02/22-rdf-syntax-ns#"
   xmlns:svg="http://www.w3.org/2000/svg"
   xmlns="http://www.w3.org/2000/svg"
   xmlns:xlink="http://www.w3.org/1999/xlink"
   xmlns:sodipodi="http://sodipodi.sourceforge.net/DTD/sodipodi-0.dtd"
   xmlns:inkscape="http://www.inkscape.org/namespaces/inkscape"
   width="30cm"
   height="30cm"
   viewBox="0 0 1062.9921 1062.9921"
   id="svg4217"
   version="1.1"
   inkscape:version="0.92.1 r"
   sodipodi:docname="tr.svg"
   inkscape:export-filename="/home/z/Documents/Projects/customgun.com/app/assets/images/theme/store_darkly/favicon.png"
   inkscape:export-xdpi="1.35"
   inkscape:export-ydpi="1.35">
  <defs
     id="defs4219">
    <linearGradient
       inkscape:collect="always"
       id="linearGradient840">
      <stop
         style="stop-color:#d3d3d3;stop-opacity:1;"
         offset="0"
         id="stop836" />
      <stop
         style="stop-color:#d3d3d3;stop-opacity:0;"
         offset="1"
         id="stop838" />
    </linearGradient>
    <linearGradient
       inkscape:collect="always"
       xlink:href="#linearGradient840"
       id="linearGradient844"
       x1="31.496065"
       y1="520.86615"
       x2="1031.496"
       y2="520.86615"
       gradientUnits="userSpaceOnUse" />
  </defs>
  <sodipodi:namedview
     id="base"
     pagecolor="#ffffff"
     bordercolor="#666666"
     borderopacity="1.0"
     inkscape:pageopacity="0.0"
     inkscape:pageshadow="2"
     inkscape:zoom="0.35"
     inkscape:cx="20.714286"
     inkscape:cy="482.85714"
     inkscape:document-units="px"
     inkscape:current-layer="layer1"
     showgrid="false"
     units="cm"
     inkscape:window-width="960"
     inkscape:window-height="1016"
     inkscape:window-x="4800"
     inkscape:window-y="30"
     inkscape:window-maximized="0" />
  <metadata
     id="metadata4222">
    <rdf:RDF>
      <cc:Work
         rdf:about="">
        <dc:format>image/svg+xml</dc:format>
        <dc:type
           rdf:resource="http://purl.org/dc/dcmitype/StillImage" />
        <dc:title></dc:title>
      </cc:Work>
    </rdf:RDF>
  </metadata>
  <g
     inkscape:label="Layer 1"
     inkscape:groupmode="layer"
     id="layer1"
     transform="translate(0,10.629867)">
    <g
       id="g849">
      <path
         inkscape:connector-curvature="0"
         id="path18"
         d="m 275.95303,20.866194 c -135.429,0 -244.457004,109.027906 -244.457004,244.456996 v 38.3848 472.7011 242.43561 H 244.27143 c 10.3675,1.3304 20.9408,2.0215 31.6816,2.0215 h 511.086 c 135.42914,0 244.45707,-109.02794 244.45707,-244.45711 V 736.00288 265.32318 20.866194 H 787.03903 512.30263 Z m -66.2851,238.312496 h 381.5625 v 109.7812 h -19.8125 c -3.9684,-37.0346 -12.1241,-60.609 -24.4688,-70.75 -11.9044,-10.581 -36.8335,-15.8746 -74.75,-15.875 h -39 v 373 c -2e-4,13.6677 1.0766,22.4695 3.2813,26.4375 2.2042,4.8499 8.1751,8.6047 17.875,11.25 10.1403,2.6454 19.6193,3.9688 28.4375,3.9688 9.2584,0 16.9522,0.2153 23.125,0.6562 v 19.1875 h -210.9375 v -19.1875 c 6.1724,-0.4409 13.6508,-0.6562 22.4687,-0.6562 9.2587,0 18.7377,-1.3234 28.4375,-3.9688 10.1404,-2.6453 16.3267,-6.4001 18.5313,-11.25 2.2043,-3.968 3.2811,-12.7698 3.2812,-26.4375 v -373 h -39 c -37.9169,4e-4 -63.0613,5.294 -75.4062,15.875 -11.9042,10.141 -19.8445,33.7154 -23.8125,70.75 h -19.8125 z m 308.6875,138.9375 h 162.2187 c 87.0313,3e-4 130.531,31.671 130.5313,95 -3e-4,25.9245 -8.4956,47.5939 -25.5313,65 -16.6658,17.0361 -38.3352,27.9669 -65,32.7812 v 1.0938 c 16.2951,4.074 29.6301,10.1963 40,18.3437 10.3695,8.1478 17.5822,17.2195 21.6563,27.2188 4.4439,9.9995 7.7776,20.7381 10,32.2187 2.2218,11.4809 4.0808,22.5725 5.5625,33.3125 1.8514,10.7401 4.2557,20.5805 7.2187,29.4688 3.3328,8.8883 8.8787,16.4541 16.6563,22.75 7.7769,5.9255 18.3234,9.6436 31.6562,11.125 v 16.125 h -45 c -15.9252,0 -28.8759,-3.3338 -38.875,-10 -9.6292,-6.6663 -16.2967,-15.1928 -20,-25.5625 -3.7037,-10.7401 -6.4922,-22.6003 -8.3437,-35.5625 -1.852,-12.9621 -3.8719,-25.9128 -6.0938,-38.875 -1.8519,-12.9621 -4.9935,-24.6302 -9.4375,-35 -4.074,-10.74 -11.4789,-19.4586 -22.2187,-26.125 -10.7403,-6.6661 -24.6517,-9.9999 -41.6875,-10 h -38.3125 v 129.4375 c -10e-5,12.2214 1.6667,20.9401 5,26.125 3.7033,4.8145 9.2492,7.4109 16.6562,7.7812 7.4068,0.3704 16.8629,0.9156 28.3438,1.6563 v 16.125 h -155 v -16.125 c 11.4807,-0.7407 20.9368,-1.2859 28.3437,-1.6563 7.4069,-0.3703 12.7606,-2.9667 16.0938,-7.7812 3.7034,-5.1849 5.5624,-13.9036 5.5625,-26.125 v -281.0938 c -10e-5,-12.2211 -1.8591,-20.7164 -5.5625,-25.5312 -3.3332,-5.1845 -8.6869,-7.9731 -16.0938,-8.3438 -7.4069,-0.37 -16.863,-0.9152 -28.3437,-1.6562 z m 135,19.4375 c -3.3333,3e-4 -6.314,0.1925 -8.9063,0.5625 -2.5925,3e-4 -4.9968,0.3846 -7.2187,1.125 -2.2222,0.741 -4.2422,1.8314 -6.0938,3.3125 -1.8518,1.1114 -3.3578,2.5861 -4.4687,4.4375 -1.1112,1.852 -2.0094,4.4484 -2.75,7.7812 -0.3705,2.9631 -0.5626,6.489 -0.5625,10.5625 v 136.6563 h 43.875 c 56.2925,2e-4 84.4372,-27.9524 84.4375,-83.875 -3e-4,-27.0351 -7.7582,-47.2297 -23.3125,-60.5625 -15.5548,-13.3322 -37.032,-19.9997 -64.4375,-20 -3.7036,3e-4 -7.2296,3e-4 -10.5625,0 z"
         style="opacity:1;fill:#cd853f;fill-opacity:1;stroke:#000000;stroke-width:14.99999952;stroke-linecap:round;stroke-linejoin:round;stroke-miterlimit:4;stroke-dasharray:none;stroke-opacity:1" />
      <path
         inkscape:connector-curvature="0"
         id="rect4158"
         d="m 275.95301,20.866194 c -135.429,0 -244.456999,109.027916 -244.456999,244.457006 V 303.708 776.40905 1018.8447 H 244.27141 c 10.3675,1.3304 20.9408,2.0215 31.6816,2.0215 H 787.039 c 135.42911,0 244.4571,-109.02793 244.4571,-244.45715 V 736.00285 265.32319 20.866194 H 787.039 512.30262 Z M 209.66791,259.1787 h 381.56251 v 109.7812 h -19.8125 c -3.9684,-37.0346 -12.1241,-60.609 -24.4688,-70.75 -11.9044,-10.581 -36.8335,-15.8746 -74.75001,-15.875 h -39 v 372.99995 c -2e-4,13.6677 1.0766,22.4695 3.2813,26.4375 2.2042,4.8499 8.1751,8.6047 17.875,11.25 10.1403,2.6454 19.6193,3.9688 28.4375,3.9688 9.25841,0 16.95221,0.2153 23.12501,0.6562 v 19.1875 H 294.98041 v -19.1875 c 6.1724,-0.4409 13.6508,-0.6562 22.4687,-0.6562 9.2587,0 18.7377,-1.3234 28.4375,-3.9688 10.1404,-2.6453 16.3267,-6.4001 18.5313,-11.25 2.2043,-3.968 3.2811,-12.7698 3.2812,-26.4375 V 282.3349 h -39 c -37.9169,4e-4 -63.0613,5.294 -75.4062,15.875 -11.9042,10.141 -19.8445,33.7154 -23.8125,70.75 h -19.8125 z m 308.68751,138.9375 h 162.21869 c 87.03129,3e-4 130.53099,31.671 130.53129,95 -3e-4,25.9245 -8.4956,47.5939 -25.5313,65 -16.6658,17.0361 -38.3352,27.9669 -65,32.7812 v 1.0938 c 16.2951,4.074 29.6301,10.1963 40,18.3437 10.3695,8.1478 17.5822,17.2195 21.6563,27.21875 4.4439,9.9995 7.7776,20.7381 10,32.2187 2.2218,11.4809 4.0808,22.5725 5.5625,33.3125 1.8514,10.7401 4.2557,20.5805 7.2187,29.4688 3.3328,8.8883 8.8787,16.4541 16.6563,22.75 7.7769,5.9255 18.3234,9.6436 31.6562,11.125 v 16.125 h -45 c -15.9252,0 -28.8759,-3.3338 -38.875,-10 -9.6292,-6.6663 -16.2967,-15.1928 -20,-25.5625 -3.7037,-10.7401 -6.4922,-22.6003 -8.3437,-35.5625 -1.852,-12.9621 -3.8719,-25.9128 -6.0938,-38.875 -1.8519,-12.9621 -4.9935,-24.6302 -9.4375,-35 -4.074,-10.73995 -11.4789,-19.45855 -22.2187,-26.12495 -10.7403,-6.6661 -24.65169,-9.9999 -41.68748,-10 h -38.3125 v 129.43745 c -10e-5,12.2214 1.6667,20.9401 5,26.125 3.7033,4.8145 9.2492,7.4109 16.6562,7.7812 7.4068,0.3704 16.8629,0.9156 28.34379,1.6563 v 16.125 H 518.35542 v -16.125 c 11.4807,-0.7407 20.9368,-1.2859 28.3437,-1.6563 7.4069,-0.3703 12.7606,-2.9667 16.0938,-7.7812 3.7034,-5.1849 5.5624,-13.9036 5.5625,-26.125 V 449.7724 c -10e-5,-12.2211 -1.8591,-20.7164 -5.5625,-25.5312 -3.3332,-5.1845 -8.6869,-7.9731 -16.0938,-8.3438 -7.4069,-0.37 -16.863,-0.9152 -28.3437,-1.6562 z m 135,19.4375 c -3.3333,3e-4 -6.314,0.1925 -8.9063,0.5625 -2.5925,3e-4 -4.9968,0.3846 -7.2187,1.125 -2.2222,0.741 -4.2422,1.8314 -6.0938,3.3125 -1.8518,1.1114 -3.3578,2.5861 -4.4687,4.4375 -1.1112,1.852 -2.0094,4.4484 -2.75,7.7812 -0.3705,2.9631 -0.5626,6.489 -0.5625,10.5625 v 136.6563 h 43.87499 c 56.29249,2e-4 84.43719,-27.9524 84.43749,-83.875 -3e-4,-27.0351 -7.7582,-47.2297 -23.3125,-60.5625 -15.5548,-13.3322 -37.032,-19.9997 -64.43748,-20 -3.7036,3e-4 -7.2296,3e-4 -10.5625,0 z"
         style="opacity:1;fill:#ffffff;fill-opacity:1;stroke:none;stroke-width:5.5;stroke-linecap:round;stroke-linejoin:round;stroke-miterlimit:4;stroke-dasharray:none;stroke-opacity:1" />
      <path
         style="opacity:1;fill:url(#linearGradient844);fill-opacity:1;stroke:none;stroke-width:5.5;stroke-linecap:round;stroke-linejoin:round;stroke-miterlimit:4;stroke-dasharray:none;stroke-opacity:1"
         d="m 275.95308,20.866164 c -135.429,0 -244.457014,109.027906 -244.457014,244.456996 v 38.3848 472.70108 242.43566 H 244.27148 c 10.3675,1.3304 20.9408,2.0215 31.6816,2.0215 h 511.086 c 135.4291,0 244.45692,-109.02801 244.45692,-244.45716 V 736.00284 265.32315 20.866164 H 787.03908 512.30268 Z m -66.2851,238.312496 h 381.5625 v 109.7812 h -19.8125 c -3.9684,-37.0346 -12.1241,-60.609 -24.4688,-70.75 -11.9044,-10.581 -36.8335,-15.8746 -74.75,-15.875 h -39 v 372.99998 c -2e-4,13.6677 1.0766,22.4695 3.2813,26.4375 2.2042,4.8499 8.1751,8.6047 17.875,11.25 10.1403,2.6454 19.6193,3.9688 28.4375,3.9688 9.2584,0 16.9522,0.2153 23.125,0.6562 v 19.1875 h -210.9375 v -19.1875 c 6.1724,-0.4409 13.6508,-0.6562 22.4687,-0.6562 9.2587,0 18.7377,-1.3234 28.4375,-3.9688 10.1404,-2.6453 16.3267,-6.4001 18.5313,-11.25 2.2043,-3.968 3.2811,-12.7698 3.2812,-26.4375 V 282.33486 h -39 c -37.9169,4e-4 -63.0613,5.294 -75.4062,15.875 -11.9042,10.141 -19.8445,33.7154 -23.8125,70.75 h -19.8125 z m 308.6875,138.9375 h 162.2187 c 87.0313,3e-4 130.531,31.671 130.5313,95 -3e-4,25.9245 -8.4956,47.5939 -25.5313,65 -16.6658,17.0361 -38.3352,27.96688 -65,32.78118 v 1.0938 c 16.2951,4.074 29.6301,10.1963 40,18.3437 10.3695,8.1478 17.5822,17.2195 21.6563,27.2188 4.4439,9.9995 7.7776,20.7381 10,32.2187 2.2218,11.4809 4.0808,22.5725 5.5625,33.3125 1.8514,10.7401 4.2557,20.5805 7.2187,29.4688 3.3328,8.8883 8.8787,16.4541 16.6563,22.75 7.7769,5.9255 18.3234,9.6436 31.6562,11.125 v 16.125 h -45 c -15.9252,0 -28.8759,-3.3338 -38.875,-10 -9.6292,-6.6663 -16.2967,-15.1928 -20,-25.5625 -3.7037,-10.7401 -6.4922,-22.6003 -8.3437,-35.5625 -1.852,-12.9621 -3.8719,-25.9128 -6.0938,-38.875 -1.8519,-12.9621 -4.9935,-24.6302 -9.4375,-35 -4.074,-10.74 -11.4789,-19.4586 -22.2187,-26.125 -10.7403,-6.6661 -24.6517,-9.9999 -41.6875,-10 h -38.3125 v 129.4375 c -10e-5,12.2214 1.6667,20.9401 5,26.125 3.7033,4.8145 9.2492,7.4109 16.6562,7.7812 7.4068,0.3704 16.8629,0.9156 28.3438,1.6563 v 16.125 h -155 v -16.125 c 11.4807,-0.7407 20.9368,-1.2859 28.3437,-1.6563 7.4069,-0.3703 12.7606,-2.9667 16.0938,-7.7812 3.7034,-5.1849 5.5624,-13.9036 5.5625,-26.125 V 449.77236 c -10e-5,-12.2211 -1.8591,-20.7164 -5.5625,-25.5312 -3.3332,-5.1845 -8.6869,-7.9731 -16.0938,-8.3438 -7.4069,-0.37 -16.863,-0.9152 -28.3437,-1.6562 z m 135,19.4375 c -3.3333,3e-4 -6.314,0.1925 -8.9063,0.5625 -2.5925,3e-4 -4.9968,0.3846 -7.2187,1.125 -2.2222,0.741 -4.2422,1.8314 -6.0938,3.3125 -1.8518,1.1114 -3.3578,2.5861 -4.4687,4.4375 -1.1112,1.852 -2.0094,4.4484 -2.75,7.7812 -0.3705,2.9631 -0.5626,6.489 -0.5625,10.5625 v 136.6563 h 43.875 c 56.2925,2e-4 84.4372,-27.9524 84.4375,-83.875 -3e-4,-27.0351 -7.7582,-47.2297 -23.3125,-60.5625 -15.5548,-13.3322 -37.032,-19.9997 -64.4375,-20 -3.7036,3e-4 -7.2296,3e-4 -10.5625,0 z"
         id="path4134"
         inkscape:connector-curvature="0" />
    </g>
  </g>
</svg>
